<svg width="254" height="40" viewBox="0 0 254 40" fill="none" xmlns="http://www.w3.org/2000/svg">
<path d="M51.0361 10.0078V14.8402H44.39V34.7617H38.2993V14.8402H31.6719V10.0078H51.0361Z" fill="#3F414A"/>
<path d="M54.0879 10.0078H60.1786V34.7617H54.0879V10.0078Z" fill="#3F414A"/>
<path d="M80.8904 10.0078V14.8402H70.7122V20.061H78.3381V24.7486H70.7122V34.7617H64.5996V10.0078H80.8904Z" fill="#3F414A"/>
<path d="M100.387 10.0078V14.8402H90.1927V20.061H97.8186V24.7486H90.1927V34.7617H84.0957V10.0078H100.387Z" fill="#3F414A"/>
<path d="M103.607 10.0078H109.689V34.7617H103.607V10.0078Z" fill="#3F414A"/>
<path d="M136.496 34.7617H130.396L120.206 19.5093V34.7771H114.105V10.0078H120.206L130.396 25.3496V10.0078H136.496V34.7617Z" fill="#3F414A"/>
<path d="M145.045 34.1266C143.637 33.5811 142.48 32.712 141.569 31.5162C140.657 30.2773 140.196 28.8905 140.189 27.3557H146.673C146.714 28.1816 147.035 28.8812 147.637 29.4544C148.258 29.9753 148.976 30.2157 149.787 30.1756C150.58 30.2249 151.298 30.0215 151.94 29.5685C152.202 29.362 152.402 29.1062 152.539 28.8072C152.68 28.5052 152.739 28.1878 152.723 27.858C152.745 27.2601 152.539 26.7547 152.109 26.3356C151.656 25.9164 151.145 25.5866 150.574 25.3524C149.728 25.0103 148.867 24.7145 147.99 24.471C146.633 24.0734 145.316 23.5803 144.034 22.9886C142.976 22.4708 142.096 21.7435 141.397 20.8004C140.657 19.8358 140.289 18.5784 140.289 17.0313C140.289 14.726 141.132 12.92 142.82 11.6163C144.505 10.3127 146.705 9.65933 149.413 9.65625C152.171 9.65625 154.396 10.3096 156.081 11.6163C157.769 12.9231 158.664 14.7414 158.767 17.0713H152.177C152.162 16.3132 151.865 15.6845 151.285 15.1883C150.673 14.6952 149.971 14.4671 149.182 14.501C148.514 14.4671 147.918 14.6613 147.4 15.0804C146.904 15.5335 146.68 16.0913 146.723 16.757C146.723 17.1484 146.826 17.509 147.032 17.8449C147.241 18.1777 147.519 18.4335 147.875 18.6092C149.01 19.2133 150.199 19.6971 151.435 20.0577C152.783 20.4892 154.096 21.0069 155.376 21.6079C156.415 22.1257 157.282 22.8468 157.984 23.7652C158.717 24.7021 159.086 25.9133 159.089 27.3957C159.104 28.7826 158.739 30.0647 158 31.2389C157.214 32.4531 156.162 33.3654 154.845 33.9787C153.301 34.7091 151.675 35.0543 149.965 35.0173C148.265 35.042 146.627 34.743 145.045 34.1266Z" fill="#DE5200"/>
<path d="M180.826 10.0078V14.8402H174.199V34.7617H168.102V14.8402H161.475V10.0078H180.826Z" fill="#DE5200"/>
<path d="M199.466 30.3916H190.127L188.63 34.7617H182.252L191.307 10.0078H198.377L207.429 34.7617H200.973L199.466 30.3916ZM197.9 25.7348L194.798 16.674L191.725 25.7348H197.9Z" fill="#DE5200"/>
<path d="M214.294 34.1281C212.887 33.5826 211.729 32.7135 210.821 31.5177C209.91 30.2757 209.455 28.8888 209.445 27.3571H215.935C215.973 28.1831 216.294 28.8826 216.9 29.4559C217.521 29.9767 218.238 30.2171 219.049 30.177C219.839 30.2264 220.557 30.023 221.202 29.5699C221.461 29.3573 221.655 29.1015 221.789 28.7994C221.923 28.4974 221.979 28.18 221.958 27.8502C221.979 27.2554 221.773 26.7469 221.343 26.3308C220.894 25.9055 220.379 25.5788 219.808 25.3446C218.962 25.0025 218.098 24.7097 217.221 24.4632C215.864 24.0656 214.547 23.5725 213.264 22.9808C212.207 22.463 211.327 21.7326 210.628 20.7926C209.888 19.828 209.52 18.5706 209.523 17.0235C209.523 14.7182 210.366 12.9122 212.054 11.6085C213.739 10.3049 215.939 9.65152 218.647 9.64844C221.402 9.64844 223.624 10.3018 225.312 11.6085C227 12.9153 227.902 14.7367 228.017 17.0728H221.424C221.408 16.3146 221.112 15.6859 220.532 15.1897C219.917 14.6966 219.218 14.4685 218.429 14.5024C217.761 14.4685 217.165 14.6627 216.647 15.0818C216.151 15.5349 215.926 16.0927 215.97 16.7584C215.967 17.1498 216.066 17.5166 216.272 17.8525C216.475 18.1884 216.756 18.4473 217.109 18.626C218.248 19.2301 219.436 19.714 220.675 20.0715C222.023 20.5091 223.334 21.0238 224.613 21.6247C225.655 22.1363 226.529 22.8513 227.234 23.7667C227.967 24.7036 228.335 25.9148 228.335 27.3972C228.351 28.7809 227.989 30.063 227.253 31.2403C226.466 32.4515 225.415 33.3637 224.098 33.9801C222.553 34.7105 220.925 35.0557 219.212 35.0187C217.514 35.0434 215.873 34.7444 214.294 34.1281Z" fill="#DE5200"/>
<path d="M253.75 10.0078V34.7617H247.656V24.5729H238.174V34.7617H232.08V10.0078H238.174V19.7066H247.656V10.0078H253.75Z" fill="#DE5200"/>
<path d="M12.8109 27.8191H0.623184C-0.0695113 27.8191 0.00849532 27.89 0.00849532 27.212V17.6057C0.00849532 17.4978 0.00849532 17.3869 0.00849532 17.279C0.00849532 17.0232 0.0334569 16.9739 0.31428 16.9739H24.8738C25.7162 16.9739 25.5945 16.8598 25.5977 17.7074C25.5977 20.8478 25.5977 23.9914 25.5977 27.1349C25.5977 27.2798 25.5977 27.44 25.5977 27.5726C25.5977 27.7945 25.5664 27.816 25.3324 27.8222C25.1858 27.8222 25.0266 27.8222 24.8862 27.8222L12.8109 27.8191Z" fill="#3F414A"/>
<path d="M12.8102 29.1482H24.9979C25.6563 29.1482 25.597 29.0927 25.597 29.7307C25.597 31.7216 25.597 33.7156 25.597 35.7034C25.5938 36.1627 25.5221 36.6126 25.3754 37.0502C25.2288 37.4879 25.0197 37.8916 24.742 38.2614C24.4643 38.6313 24.1367 38.9487 23.7591 39.2168C23.3785 39.4819 22.9666 39.6822 22.5235 39.8178C22.1678 39.9349 21.8059 39.9935 21.4346 39.9996H4.60082C4.17334 40.012 3.75211 39.9719 3.33712 39.8856C2.86908 39.7777 2.43224 39.599 2.02349 39.3463C1.61786 39.0935 1.26215 38.7823 0.962608 38.4124C0.659944 38.0426 0.425926 37.6327 0.263673 37.1858C0.10142 36.739 0.0140534 36.2798 0.0078125 35.8052C0.0078125 33.7249 0.0078125 31.6415 0.0078125 29.5489V29.4379C0.0078125 29.1698 0.0358947 29.1328 0.285515 29.1328H12.8102V29.1482Z" fill="#DE5200"/>
<path d="M25.5944 8.8639C25.585 8.41395 25.507 7.97323 25.3572 7.54793C25.2043 7.12263 24.9921 6.7343 24.7113 6.3768C24.4336 6.0193 24.1029 5.71727 23.7253 5.46456C23.3478 5.21492 22.939 5.03001 22.4991 4.90981C22.1028 4.81119 21.7003 4.76188 21.2915 4.76805C20.7205 4.76805 20.1495 4.76805 19.5785 4.76805C18.7204 4.76805 18.839 4.86975 18.8265 4.05612C18.8265 3.85272 18.8265 3.65239 18.8265 3.44591C18.8203 3.21476 18.7891 2.9867 18.736 2.76172C18.683 2.53674 18.6081 2.31793 18.5114 2.10836C18.4147 1.8957 18.2992 1.69538 18.165 1.50738C18.0278 1.31939 17.8749 1.14372 17.7064 0.986541C17.5379 0.826281 17.3538 0.684513 17.1572 0.561237C16.9606 0.434879 16.7516 0.330094 16.5332 0.246882C16.3147 0.16367 16.0932 0.09895 15.8623 0.0588854C15.6314 0.0157382 15.4005 -0.00275265 15.1665 0.000329059C13.6001 0.000329059 12.0306 0.000329059 10.4643 0.000329059C10.2209 0.00341077 9.98375 0.0280659 9.74661 0.071213C9.40027 0.12977 9.0664 0.240718 8.75125 0.397896C8.43611 0.555073 8.15217 0.755397 7.89631 0.995786C7.64045 1.23618 7.42515 1.51047 7.25353 1.81249C7.0788 2.1176 6.95399 2.43812 6.87599 2.78021C6.79174 3.24866 6.76054 3.72328 6.78238 4.19789C6.78238 4.80503 6.82918 4.76805 6.22385 4.77113H4.23314C3.47492 4.75572 2.76974 4.94371 2.12073 5.32895C1.79622 5.5077 1.4998 5.72652 1.23458 5.98232C0.969357 6.2412 0.744699 6.52782 0.560604 6.84834C0.37339 7.16577 0.232978 7.5017 0.139371 7.8592C0.0457631 8.21362 0.00208039 8.57421 0.00832048 8.94403C-0.0104006 10.9689 0.00832048 12.9937 0.00832048 15.0246C0.00832048 15.6595 -0.0478438 15.6133 0.604288 15.6133H24.9079C25.0733 15.6133 25.2418 15.6133 25.4071 15.6133C25.5257 15.6164 25.585 15.5609 25.585 15.4407C25.585 15.3698 25.585 15.2959 25.585 15.2219C25.5975 13.0954 25.61 10.975 25.5944 8.8639ZM17.4318 4.315C17.438 4.37356 17.4193 4.42287 17.3756 4.46602C17.3351 4.50608 17.2851 4.52457 17.2258 4.51841C17.0605 4.51841 16.8951 4.51841 16.7266 4.51841H8.92287C8.79494 4.51841 8.66389 4.51841 8.53596 4.51841C8.18649 4.51841 8.17089 4.49067 8.16465 4.13317C8.16465 3.89586 8.16465 3.65856 8.16465 3.42125C8.17713 3.15004 8.24265 2.89116 8.35498 2.64461C8.46731 2.39806 8.6202 2.17924 8.81678 1.98816C9.01335 1.80017 9.23801 1.65223 9.48763 1.54437C9.74037 1.43958 10.0056 1.38103 10.2771 1.37178H15.3225C15.5971 1.38103 15.8592 1.43958 16.1119 1.54745C16.3647 1.65532 16.5893 1.80325 16.7828 1.99433C16.9793 2.1854 17.1322 2.40422 17.2446 2.65385C17.3569 2.90041 17.4193 3.15929 17.4318 3.4305C17.4411 3.73561 17.4318 4.02839 17.4318 4.315Z" fill="#DE5200"/>
</svg>
