<svg width="24" height="24" viewBox="0 0 24 24" fill="none" xmlns="http://www.w3.org/2000/svg">
<path d="M21.9993 8.18608C21.8829 8.25293 19.1117 9.66372 19.1117 12.7918C19.2423 16.3591 22.6089 17.6102 22.6666 17.6102C22.6089 17.677 22.1583 19.3144 20.8238 21.0308C19.7647 22.5093 18.5892 24 16.8042 24C15.1062 24 14.4967 23.0146 12.5375 23.0146C10.4335 23.0146 9.83816 24 8.22727 24C6.44223 24 5.17964 22.4295 4.06281 20.9648C2.61188 19.0479 1.37863 16.0396 1.33509 13.1512C1.30575 11.6206 1.62566 10.116 2.43773 8.83808C3.5839 7.05397 5.63016 5.84286 7.86477 5.80292C9.57693 5.74996 11.1007 6.8812 12.1456 6.8812C13.147 6.8812 15.0191 5.80292 17.1373 5.80292C18.0516 5.80379 20.4897 6.05643 21.9993 8.18608ZM12.0008 5.49732C11.6961 4.09955 12.5375 2.70178 13.3212 1.81016C14.3225 0.731877 15.9041 0 17.2679 0C17.355 1.39777 16.8032 2.76863 15.817 3.76704C14.9321 4.84532 13.4082 5.65707 12.0008 5.49732Z" fill="white"/>
</svg>
