<svg width="188" height="52" viewBox="0 0 188 52" fill="none" xmlns="http://www.w3.org/2000/svg">
<rect width="188" height="52" rx="8" fill="#3F414A"/>
<path d="M44.1666 22.5039C44.0598 22.5652 41.5195 23.8584 41.5195 26.7258C41.6392 29.9959 44.7253 31.1427 44.7782 31.1427C44.7253 31.2039 44.3123 32.7049 43.089 34.2783C42.1182 35.6336 41.0406 37 39.4043 37C37.8479 37 37.2891 36.0967 35.4932 36.0967C33.5645 36.0967 33.0188 37 31.5422 37C29.9059 37 28.7485 35.5603 27.7248 34.2178C26.3947 32.4606 25.2643 29.703 25.2243 27.0553C25.1974 25.6522 25.4907 24.273 26.2351 23.1016C27.2857 21.4661 29.1615 20.356 31.2099 20.3193C32.7794 20.2708 34.1762 21.3078 35.134 21.3078C36.0519 21.3078 37.768 20.3193 39.7097 20.3193C40.5478 20.3201 42.7827 20.5517 44.1666 22.5039ZM35.0013 20.0392C34.7219 18.7579 35.4932 17.4766 36.2116 16.6593C37.1295 15.6709 38.5792 15 39.8294 15C39.9093 16.2813 39.4035 17.5379 38.4994 18.4531C37.6882 19.4415 36.2914 20.1856 35.0013 20.0392Z" fill="white"/>
<path d="M56.416 14.44C57.008 14.44 57.5253 14.5547 57.968 14.784C58.416 15.008 58.76 15.3333 59 15.76C59.2453 16.1813 59.368 16.6747 59.368 17.24C59.368 17.8053 59.2453 18.296 59 18.712C58.76 19.128 58.416 19.448 57.968 19.672C57.5253 19.8907 57.008 20 56.416 20H54.6V14.44H56.416ZM56.416 19.256C57.0667 19.256 57.5653 19.08 57.912 18.728C58.2587 18.376 58.432 17.88 58.432 17.24C58.432 16.5947 58.2587 16.0907 57.912 15.728C57.5653 15.3653 57.0667 15.184 56.416 15.184H55.512V19.256H56.416ZM62.1839 20.072C61.7679 20.072 61.3919 19.9787 61.0559 19.792C60.7199 19.6 60.4559 19.3333 60.2639 18.992C60.0719 18.6453 59.9759 18.2453 59.9759 17.792C59.9759 17.344 60.0745 16.9467 60.2719 16.6C60.4692 16.2533 60.7385 15.9867 61.0799 15.8C61.4212 15.6133 61.8025 15.52 62.2239 15.52C62.6452 15.52 63.0265 15.6133 63.3679 15.8C63.7092 15.9867 63.9785 16.2533 64.1759 16.6C64.3732 16.9467 64.4719 17.344 64.4719 17.792C64.4719 18.24 64.3705 18.6373 64.1679 18.984C63.9652 19.3307 63.6879 19.6 63.3359 19.792C62.9892 19.9787 62.6052 20.072 62.1839 20.072ZM62.1839 19.28C62.4185 19.28 62.6372 19.224 62.8399 19.112C63.0479 19 63.2159 18.832 63.3439 18.608C63.4719 18.384 63.5359 18.112 63.5359 17.792C63.5359 17.472 63.4745 17.2027 63.3519 16.984C63.2292 16.76 63.0665 16.592 62.8639 16.48C62.6612 16.368 62.4425 16.312 62.2079 16.312C61.9732 16.312 61.7545 16.368 61.5519 16.48C61.3545 16.592 61.1972 16.76 61.0799 16.984C60.9625 17.2027 60.9039 17.472 60.9039 17.792C60.9039 18.2667 61.0239 18.6347 61.2639 18.896C61.5092 19.152 61.8159 19.28 62.1839 19.28ZM71.2934 15.592L69.9254 20H68.9654L68.0774 16.744L67.1894 20H66.2294L64.8534 15.592H65.7814L66.7014 19.136L67.6374 15.592H68.5894L69.4854 19.12L70.3974 15.592H71.2934ZM74.199 15.52C74.5457 15.52 74.855 15.592 75.127 15.736C75.4043 15.88 75.6203 16.0933 75.775 16.376C75.9297 16.6587 76.007 17 76.007 17.4V20H75.103V17.536C75.103 17.1413 75.0043 16.84 74.807 16.632C74.6097 16.4187 74.3403 16.312 73.999 16.312C73.6577 16.312 73.3857 16.4187 73.183 16.632C72.9857 16.84 72.887 17.1413 72.887 17.536V20H71.975V15.592H72.887V16.096C73.0363 15.9147 73.2257 15.7733 73.455 15.672C73.6897 15.5707 73.9377 15.52 74.199 15.52ZM78.0823 14.08V20H77.1703V14.08H78.0823ZM81.1917 20.072C80.7757 20.072 80.3997 19.9787 80.0637 19.792C79.7277 19.6 79.4637 19.3333 79.2717 18.992C79.0797 18.6453 78.9837 18.2453 78.9837 17.792C78.9837 17.344 79.0824 16.9467 79.2797 16.6C79.477 16.2533 79.7464 15.9867 80.0877 15.8C80.429 15.6133 80.8104 15.52 81.2317 15.52C81.653 15.52 82.0344 15.6133 82.3757 15.8C82.717 15.9867 82.9864 16.2533 83.1837 16.6C83.381 16.9467 83.4797 17.344 83.4797 17.792C83.4797 18.24 83.3784 18.6373 83.1757 18.984C82.973 19.3307 82.6957 19.6 82.3437 19.792C81.997 19.9787 81.613 20.072 81.1917 20.072ZM81.1917 19.28C81.4264 19.28 81.645 19.224 81.8477 19.112C82.0557 19 82.2237 18.832 82.3517 18.608C82.4797 18.384 82.5437 18.112 82.5437 17.792C82.5437 17.472 82.4824 17.2027 82.3597 16.984C82.237 16.76 82.0744 16.592 81.8717 16.48C81.669 16.368 81.4504 16.312 81.2157 16.312C80.981 16.312 80.7624 16.368 80.5597 16.48C80.3624 16.592 80.205 16.76 80.0877 16.984C79.9704 17.2027 79.9117 17.472 79.9117 17.792C79.9117 18.2667 80.0317 18.6347 80.2717 18.896C80.517 19.152 80.8237 19.28 81.1917 19.28ZM84.0773 17.776C84.0773 17.3333 84.1679 16.9413 84.3493 16.6C84.5359 16.2587 84.7866 15.9947 85.1013 15.808C85.4213 15.616 85.7733 15.52 86.1573 15.52C86.5039 15.52 86.8053 15.5893 87.0613 15.728C87.3226 15.8613 87.5306 16.0293 87.6853 16.232V15.592H88.6053V20H87.6853V19.344C87.5306 19.552 87.3199 19.7253 87.0533 19.864C86.7866 20.0027 86.4826 20.072 86.1413 20.072C85.7626 20.072 85.4159 19.976 85.1013 19.784C84.7866 19.5867 84.5359 19.3147 84.3493 18.968C84.1679 18.616 84.0773 18.2187 84.0773 17.776ZM87.6853 17.792C87.6853 17.488 87.6213 17.224 87.4933 17C87.3706 16.776 87.2079 16.6053 87.0053 16.488C86.8026 16.3707 86.5839 16.312 86.3493 16.312C86.1146 16.312 85.8959 16.3707 85.6933 16.488C85.4906 16.6 85.3253 16.768 85.1973 16.992C85.0746 17.2107 85.0133 17.472 85.0133 17.776C85.0133 18.08 85.0746 18.3467 85.1973 18.576C85.3253 18.8053 85.4906 18.9813 85.6933 19.104C85.9013 19.2213 86.1199 19.28 86.3493 19.28C86.5839 19.28 86.8026 19.2213 87.0053 19.104C87.2079 18.9867 87.3706 18.816 87.4933 18.592C87.6213 18.3627 87.6853 18.096 87.6853 17.792ZM89.4991 17.776C89.4991 17.3333 89.5898 16.9413 89.7711 16.6C89.9578 16.2587 90.2085 15.9947 90.5231 15.808C90.8431 15.616 91.1978 15.52 91.5871 15.52C91.8751 15.52 92.1578 15.584 92.4351 15.712C92.7178 15.8347 92.9418 16 93.1071 16.208V14.08H94.0271V20H93.1071V19.336C92.9578 19.5493 92.7498 19.7253 92.4831 19.864C92.2218 20.0027 91.9205 20.072 91.5791 20.072C91.1951 20.072 90.8431 19.976 90.5231 19.784C90.2085 19.5867 89.9578 19.3147 89.7711 18.968C89.5898 18.616 89.4991 18.2187 89.4991 17.776ZM93.1071 17.792C93.1071 17.488 93.0431 17.224 92.9151 17C92.7925 16.776 92.6298 16.6053 92.4271 16.488C92.2245 16.3707 92.0058 16.312 91.7711 16.312C91.5365 16.312 91.3178 16.3707 91.1151 16.488C90.9125 16.6 90.7471 16.768 90.6191 16.992C90.4965 17.2107 90.4351 17.472 90.4351 17.776C90.4351 18.08 90.4965 18.3467 90.6191 18.576C90.7471 18.8053 90.9125 18.9813 91.1151 19.104C91.3231 19.2213 91.5418 19.28 91.7711 19.28C92.0058 19.28 92.2245 19.2213 92.4271 19.104C92.6298 18.9867 92.7925 18.816 92.9151 18.592C93.0431 18.3627 93.1071 18.096 93.1071 17.792ZM99.2151 20.072C98.7991 20.072 98.4231 19.9787 98.0871 19.792C97.7511 19.6 97.4871 19.3333 97.2951 18.992C97.1031 18.6453 97.0071 18.2453 97.0071 17.792C97.0071 17.344 97.1058 16.9467 97.3031 16.6C97.5005 16.2533 97.7698 15.9867 98.1111 15.8C98.4525 15.6133 98.8338 15.52 99.2551 15.52C99.6765 15.52 100.058 15.6133 100.399 15.8C100.74 15.9867 101.01 16.2533 101.207 16.6C101.404 16.9467 101.503 17.344 101.503 17.792C101.503 18.24 101.402 18.6373 101.199 18.984C100.996 19.3307 100.719 19.6 100.367 19.792C100.02 19.9787 99.6365 20.072 99.2151 20.072ZM99.2151 19.28C99.4498 19.28 99.6685 19.224 99.8711 19.112C100.079 19 100.247 18.832 100.375 18.608C100.503 18.384 100.567 18.112 100.567 17.792C100.567 17.472 100.506 17.2027 100.383 16.984C100.26 16.76 100.098 16.592 99.8951 16.48C99.6925 16.368 99.4738 16.312 99.2391 16.312C99.0045 16.312 98.7858 16.368 98.5831 16.48C98.3858 16.592 98.2285 16.76 98.1111 16.984C97.9938 17.2027 97.9351 17.472 97.9351 17.792C97.9351 18.2667 98.0551 18.6347 98.2951 18.896C98.5405 19.152 98.8471 19.28 99.2151 19.28ZM104.629 15.52C104.975 15.52 105.285 15.592 105.557 15.736C105.834 15.88 106.05 16.0933 106.205 16.376C106.359 16.6587 106.437 17 106.437 17.4V20H105.533V17.536C105.533 17.1413 105.434 16.84 105.237 16.632C105.039 16.4187 104.77 16.312 104.429 16.312C104.087 16.312 103.815 16.4187 103.613 16.632C103.415 16.84 103.317 17.1413 103.317 17.536V20H102.405V15.592H103.317V16.096C103.466 15.9147 103.655 15.7733 103.885 15.672C104.119 15.5707 104.367 15.52 104.629 15.52ZM110.742 16.336V18.776C110.742 18.9413 110.779 19.0613 110.854 19.136C110.934 19.2053 111.067 19.24 111.254 19.24H111.814V20H111.094C110.683 20 110.369 19.904 110.15 19.712C109.931 19.52 109.822 19.208 109.822 18.776V16.336H109.302V15.592H109.822V14.496H110.742V15.592H111.814V16.336H110.742ZM114.935 15.52C115.271 15.52 115.569 15.592 115.831 15.736C116.097 15.88 116.305 16.0933 116.455 16.376C116.609 16.6587 116.687 17 116.687 17.4V20H115.783V17.536C115.783 17.1413 115.684 16.84 115.487 16.632C115.289 16.4187 115.02 16.312 114.679 16.312C114.337 16.312 114.065 16.4187 113.863 16.632C113.665 16.84 113.567 17.1413 113.567 17.536V20H112.655V14.08H113.567V16.104C113.721 15.9173 113.916 15.7733 114.151 15.672C114.391 15.5707 114.652 15.52 114.935 15.52ZM121.89 17.688C121.89 17.8533 121.879 18.0027 121.858 18.136H118.49C118.517 18.488 118.647 18.7707 118.882 18.984C119.117 19.1973 119.405 19.304 119.746 19.304C120.237 19.304 120.583 19.0987 120.786 18.688H121.77C121.637 19.0933 121.394 19.4267 121.042 19.688C120.695 19.944 120.263 20.072 119.746 20.072C119.325 20.072 118.946 19.9787 118.61 19.792C118.279 19.6 118.018 19.3333 117.826 18.992C117.639 18.6453 117.546 18.2453 117.546 17.792C117.546 17.3387 117.637 16.9413 117.818 16.6C118.005 16.2533 118.263 15.9867 118.594 15.8C118.93 15.6133 119.314 15.52 119.746 15.52C120.162 15.52 120.533 15.6107 120.858 15.792C121.183 15.9733 121.437 16.2293 121.618 16.56C121.799 16.8853 121.89 17.2613 121.89 17.688ZM120.938 17.4C120.933 17.064 120.813 16.7947 120.578 16.592C120.343 16.3893 120.053 16.288 119.706 16.288C119.391 16.288 119.122 16.3893 118.898 16.592C118.674 16.7893 118.541 17.0587 118.498 17.4H120.938Z" fill="white"/>
<path d="M62.892 35.444H57.654L56.754 38H54.612L59.094 25.472H61.47L65.952 38H63.792L62.892 35.444ZM62.316 33.77L60.282 27.956L58.23 33.77H62.316ZM69.9528 29.54C70.3008 29.084 70.7748 28.7 71.3748 28.388C71.9748 28.076 72.6528 27.92 73.4088 27.92C74.2728 27.92 75.0588 28.136 75.7668 28.568C76.4868 28.988 77.0508 29.582 77.4588 30.35C77.8668 31.118 78.0708 32 78.0708 32.996C78.0708 33.992 77.8668 34.886 77.4588 35.678C77.0508 36.458 76.4868 37.07 75.7668 37.514C75.0588 37.946 74.2728 38.162 73.4088 38.162C72.6528 38.162 71.9808 38.012 71.3928 37.712C70.8048 37.4 70.3248 37.016 69.9528 36.56V42.716H67.9008V28.082H69.9528V29.54ZM75.9828 32.996C75.9828 32.312 75.8388 31.724 75.5508 31.232C75.2748 30.728 74.9028 30.35 74.4348 30.098C73.9788 29.834 73.4868 29.702 72.9588 29.702C72.4428 29.702 71.9508 29.834 71.4828 30.098C71.0268 30.362 70.6548 30.746 70.3668 31.25C70.0908 31.754 69.9528 32.348 69.9528 33.032C69.9528 33.716 70.0908 34.316 70.3668 34.832C70.6548 35.336 71.0268 35.72 71.4828 35.984C71.9508 36.248 72.4428 36.38 72.9588 36.38C73.4868 36.38 73.9788 36.248 74.4348 35.984C74.9028 35.708 75.2748 35.312 75.5508 34.796C75.8388 34.28 75.9828 33.68 75.9828 32.996ZM82.152 29.54C82.5 29.084 82.974 28.7 83.574 28.388C84.174 28.076 84.852 27.92 85.608 27.92C86.472 27.92 87.258 28.136 87.966 28.568C88.686 28.988 89.25 29.582 89.658 30.35C90.066 31.118 90.27 32 90.27 32.996C90.27 33.992 90.066 34.886 89.658 35.678C89.25 36.458 88.686 37.07 87.966 37.514C87.258 37.946 86.472 38.162 85.608 38.162C84.852 38.162 84.18 38.012 83.592 37.712C83.004 37.4 82.524 37.016 82.152 36.56V42.716H80.1V28.082H82.152V29.54ZM88.182 32.996C88.182 32.312 88.038 31.724 87.75 31.232C87.474 30.728 87.102 30.35 86.634 30.098C86.178 29.834 85.686 29.702 85.158 29.702C84.642 29.702 84.15 29.834 83.682 30.098C83.226 30.362 82.854 30.746 82.566 31.25C82.29 31.754 82.152 32.348 82.152 33.032C82.152 33.716 82.29 34.316 82.566 34.832C82.854 35.336 83.226 35.72 83.682 35.984C84.15 36.248 84.642 36.38 85.158 36.38C85.686 36.38 86.178 36.248 86.634 35.984C87.102 35.708 87.474 35.312 87.75 34.796C88.038 34.28 88.182 33.68 88.182 32.996ZM101.097 38.126C100.257 38.126 99.501 37.982 98.829 37.694C98.157 37.394 97.629 36.974 97.245 36.434C96.861 35.894 96.669 35.264 96.669 34.544H98.865C98.913 35.084 99.123 35.528 99.495 35.876C99.879 36.224 100.413 36.398 101.097 36.398C101.805 36.398 102.357 36.23 102.753 35.894C103.149 35.546 103.347 35.102 103.347 34.562C103.347 34.142 103.221 33.8 102.969 33.536C102.729 33.272 102.423 33.068 102.051 32.924C101.691 32.78 101.187 32.624 100.539 32.456C99.723 32.24 99.057 32.024 98.541 31.808C98.037 31.58 97.605 31.232 97.245 30.764C96.885 30.296 96.705 29.672 96.705 28.892C96.705 28.172 96.885 27.542 97.245 27.002C97.605 26.462 98.109 26.048 98.757 25.76C99.405 25.472 100.155 25.328 101.007 25.328C102.219 25.328 103.209 25.634 103.977 26.246C104.757 26.846 105.189 27.674 105.273 28.73H103.005C102.969 28.274 102.753 27.884 102.357 27.56C101.961 27.236 101.439 27.074 100.791 27.074C100.203 27.074 99.723 27.224 99.351 27.524C98.979 27.824 98.793 28.256 98.793 28.82C98.793 29.204 98.907 29.522 99.135 29.774C99.375 30.014 99.675 30.206 100.035 30.35C100.395 30.494 100.887 30.65 101.511 30.818C102.339 31.046 103.011 31.274 103.527 31.502C104.055 31.73 104.499 32.084 104.859 32.564C105.231 33.032 105.417 33.662 105.417 34.454C105.417 35.09 105.243 35.69 104.895 36.254C104.559 36.818 104.061 37.274 103.401 37.622C102.753 37.958 101.985 38.126 101.097 38.126ZM110.232 29.756V35.246C110.232 35.618 110.316 35.888 110.484 36.056C110.664 36.212 110.964 36.29 111.384 36.29H112.644V38H111.024C110.1 38 109.392 37.784 108.9 37.352C108.408 36.92 108.162 36.218 108.162 35.246V29.756H106.992V28.082H108.162V25.616H110.232V28.082H112.644V29.756H110.232ZM118.838 38.162C117.902 38.162 117.056 37.952 116.3 37.532C115.544 37.1 114.95 36.5 114.518 35.732C114.086 34.952 113.87 34.052 113.87 33.032C113.87 32.024 114.092 31.13 114.536 30.35C114.98 29.57 115.586 28.97 116.354 28.55C117.122 28.13 117.98 27.92 118.928 27.92C119.876 27.92 120.734 28.13 121.502 28.55C122.27 28.97 122.876 29.57 123.32 30.35C123.764 31.13 123.986 32.024 123.986 33.032C123.986 34.04 123.758 34.934 123.302 35.714C122.846 36.494 122.222 37.1 121.43 37.532C120.65 37.952 119.786 38.162 118.838 38.162ZM118.838 36.38C119.366 36.38 119.858 36.254 120.314 36.002C120.782 35.75 121.16 35.372 121.448 34.868C121.736 34.364 121.88 33.752 121.88 33.032C121.88 32.312 121.742 31.706 121.466 31.214C121.19 30.71 120.824 30.332 120.368 30.08C119.912 29.828 119.42 29.702 118.892 29.702C118.364 29.702 117.872 29.828 117.416 30.08C116.972 30.332 116.618 30.71 116.354 31.214C116.09 31.706 115.958 32.312 115.958 33.032C115.958 34.1 116.228 34.928 116.768 35.516C117.32 36.092 118.01 36.38 118.838 36.38ZM128.066 29.522C128.366 29.018 128.762 28.628 129.254 28.352C129.758 28.064 130.352 27.92 131.036 27.92V30.044H130.514C129.71 30.044 129.098 30.248 128.678 30.656C128.27 31.064 128.066 31.772 128.066 32.78V38H126.014V28.082H128.066V29.522ZM142.012 32.798C142.012 33.17 141.988 33.506 141.94 33.806H134.362C134.422 34.598 134.716 35.234 135.244 35.714C135.772 36.194 136.42 36.434 137.188 36.434C138.292 36.434 139.072 35.972 139.528 35.048H141.742C141.442 35.96 140.896 36.71 140.104 37.298C139.324 37.874 138.352 38.162 137.188 38.162C136.24 38.162 135.388 37.952 134.632 37.532C133.888 37.1 133.3 36.5 132.868 35.732C132.448 34.952 132.238 34.052 132.238 33.032C132.238 32.012 132.442 31.118 132.85 30.35C133.27 29.57 133.852 28.97 134.596 28.55C135.352 28.13 136.216 27.92 137.188 27.92C138.124 27.92 138.958 28.124 139.69 28.532C140.422 28.94 140.992 29.516 141.4 30.26C141.808 30.992 142.012 31.838 142.012 32.798ZM139.87 32.15C139.858 31.394 139.588 30.788 139.06 30.332C138.532 29.876 137.878 29.648 137.098 29.648C136.39 29.648 135.784 29.876 135.28 30.332C134.776 30.776 134.476 31.382 134.38 32.15H139.87Z" fill="white"/>
</svg>
