<svg width="16" height="17" viewBox="0 0 16 17" fill="none" xmlns="http://www.w3.org/2000/svg">
<path d="M11.1671 2.87398V1.83398C11.1671 1.56065 10.9405 1.33398 10.6671 1.33398C10.3938 1.33398 10.1671 1.56065 10.1671 1.83398V2.83398H5.83381V1.83398C5.83381 1.56065 5.60714 1.33398 5.33381 1.33398C5.06048 1.33398 4.83381 1.56065 4.83381 1.83398V2.87398C3.03381 3.04065 2.16048 4.11398 2.02714 5.70732C2.01381 5.90065 2.17381 6.06065 2.36048 6.06065H13.6405C13.8338 6.06065 13.9938 5.89398 13.9738 5.70732C13.8405 4.11398 12.9671 3.04065 11.1671 2.87398Z" fill="#545661"/>
<path opacity="0.4" d="M14 7.72607V8.88607C14 9.29273 13.64 9.60608 13.24 9.53941C13.0533 9.51274 12.86 9.49274 12.6667 9.49274C10.6467 9.49274 9 11.1394 9 13.1594C9 13.4661 9.12 13.8928 9.24667 14.2794C9.39334 14.7128 9.07333 15.1594 8.61333 15.1594H5.33333C3 15.1594 2 13.8261 2 11.8261V7.7194C2 7.35273 2.3 7.05273 2.66667 7.05273H13.3333C13.7 7.0594 14 7.35941 14 7.72607Z" fill="#545661"/>
<path d="M12.6667 10.5C11.1933 10.5 10 11.6933 10 13.1667C10 13.6667 10.14 14.14 10.3867 14.54C10.8467 15.3133 11.6933 15.8333 12.6667 15.8333C13.64 15.8333 14.4867 15.3133 14.9467 14.54C15.1933 14.14 15.3333 13.6667 15.3333 13.1667C15.3333 11.6933 14.14 10.5 12.6667 10.5ZM14.0467 12.88L12.6267 14.1933C12.5333 14.28 12.4067 14.3267 12.2867 14.3267C12.16 14.3267 12.0333 14.28 11.9333 14.18L11.2733 13.52C11.08 13.3267 11.08 13.0067 11.2733 12.8133C11.4667 12.62 11.7867 12.62 11.98 12.8133L12.3 13.1333L13.3667 12.1467C13.5667 11.96 13.8867 11.9733 14.0733 12.1733C14.26 12.3733 14.2467 12.6867 14.0467 12.88Z" fill="#545661"/>
<path d="M5.66667 10.4999C5.49333 10.4999 5.32 10.4266 5.19333 10.3066C5.07333 10.1799 5 10.0066 5 9.83328C5 9.65994 5.07333 9.48661 5.19333 9.35995C5.34667 9.20661 5.58 9.13327 5.8 9.17993C5.84 9.1866 5.88 9.19993 5.92 9.21993C5.96 9.23327 6 9.25328 6.04 9.27995C6.07333 9.30662 6.10667 9.33328 6.14 9.35995C6.26 9.48661 6.33333 9.65994 6.33333 9.83328C6.33333 10.0066 6.26 10.1799 6.14 10.3066C6.10667 10.3333 6.07333 10.3599 6.04 10.3866C6 10.4133 5.96 10.4333 5.92 10.4466C5.88 10.4666 5.84 10.4799 5.8 10.4866C5.75333 10.4933 5.70667 10.4999 5.66667 10.4999Z" fill="#545661"/>
<path d="M7.99967 10.4988C7.82634 10.4988 7.65301 10.4255 7.52634 10.3055C7.40634 10.1788 7.33301 10.0055 7.33301 9.83216C7.33301 9.65882 7.40634 9.48549 7.52634 9.35883C7.77968 9.11216 8.22634 9.11216 8.47301 9.35883C8.59301 9.48549 8.66634 9.65882 8.66634 9.83216C8.66634 10.0055 8.59301 10.1788 8.47301 10.3055C8.34634 10.4255 8.17301 10.4988 7.99967 10.4988Z" fill="#545661"/>
<path d="M5.66667 12.8346C5.49333 12.8346 5.32 12.7612 5.19333 12.6412C5.07333 12.5145 5 12.3412 5 12.1679C5 11.9946 5.07333 11.8212 5.19333 11.6946C5.26 11.6346 5.32667 11.5879 5.41334 11.5545C5.66 11.4479 5.95333 11.5079 6.14 11.6946C6.26 11.8212 6.33333 11.9946 6.33333 12.1679C6.33333 12.3412 6.26 12.5145 6.14 12.6412C6.01333 12.7612 5.84 12.8346 5.66667 12.8346Z" fill="#545661"/>
</svg>
