<svg width="16" height="16" viewBox="0 0 16 16" fill="none" xmlns="http://www.w3.org/2000/svg">
<path d="M11.1662 2.37398V1.33398C11.1662 1.06065 10.9395 0.833984 10.6662 0.833984C10.3928 0.833984 10.1662 1.06065 10.1662 1.33398V2.33398H5.83283V1.33398C5.83283 1.06065 5.60616 0.833984 5.33283 0.833984C5.0595 0.833984 4.83283 1.06065 4.83283 1.33398V2.37398C3.03283 2.54065 2.1595 3.61398 2.02617 5.20732C2.01284 5.40065 2.17284 5.56065 2.3595 5.56065H13.6395C13.8328 5.56065 13.9928 5.39398 13.9728 5.20732C13.8395 3.61398 12.9662 2.54065 11.1662 2.37398Z" fill="#0D0E15"/>
<path opacity="0.4" d="M13.3333 6.56055C13.7 6.56055 14 6.86055 14 7.22721V11.3339C14 13.3339 13 14.6672 10.6667 14.6672H5.33333C3 14.6672 2 13.3339 2 11.3339V7.22721C2 6.86055 2.3 6.56055 2.66667 6.56055H13.3333Z" fill="#0D0E15"/>
<path d="M5.66667 9.99993C5.58 9.99993 5.49333 9.97994 5.41333 9.94661C5.33333 9.91327 5.26001 9.86659 5.19334 9.80659C5.13334 9.73993 5.08666 9.6666 5.05332 9.5866C5.01999 9.5066 5 9.41993 5 9.33326C5 9.2466 5.01999 9.15993 5.05332 9.07993C5.08666 8.99993 5.13334 8.9266 5.19334 8.85994C5.26001 8.79994 5.33333 8.75326 5.41333 8.71992C5.57333 8.65326 5.76 8.65326 5.92 8.71992C6 8.75326 6.07333 8.79994 6.13999 8.85994C6.19999 8.9266 6.24668 8.99993 6.28001 9.07993C6.31334 9.15993 6.33333 9.2466 6.33333 9.33326C6.33333 9.41993 6.31334 9.5066 6.28001 9.5866C6.24668 9.6666 6.19999 9.73993 6.13999 9.80659C6.07333 9.86659 6 9.91327 5.92 9.94661C5.84 9.97994 5.75333 9.99993 5.66667 9.99993Z" fill="#0D0E15"/>
<path d="M8.00065 9.99907C7.91398 9.99907 7.82731 9.97908 7.74731 9.94575C7.66731 9.91241 7.59399 9.86573 7.52732 9.80573C7.40732 9.67907 7.33398 9.50574 7.33398 9.33241C7.33398 9.15907 7.40732 8.98574 7.52732 8.85908C7.59399 8.79908 7.66731 8.7524 7.74731 8.71906C7.90731 8.64573 8.09399 8.64573 8.25399 8.71906C8.33399 8.7524 8.40731 8.79908 8.47398 8.85908C8.59398 8.98574 8.66732 9.15907 8.66732 9.33241C8.66732 9.50574 8.59398 9.67907 8.47398 9.80573C8.40731 9.86573 8.33399 9.91241 8.25399 9.94575C8.17399 9.97908 8.08732 9.99907 8.00065 9.99907Z" fill="#667085"/>
<path d="M5.66667 12.3339C5.58 12.3339 5.49333 12.3139 5.41333 12.2806C5.33333 12.2473 5.26001 12.2006 5.19334 12.1406C5.07334 12.0139 5 11.8406 5 11.6672C5 11.4939 5.07334 11.3206 5.19334 11.1939C5.26001 11.1339 5.33333 11.0872 5.41333 11.0539C5.57333 10.9872 5.76 10.9872 5.92 11.0539C6 11.0872 6.07333 11.1339 6.13999 11.1939C6.25999 11.3206 6.33333 11.4939 6.33333 11.6672C6.33333 11.8406 6.25999 12.0139 6.13999 12.1406C6.07333 12.2006 6 12.2473 5.92 12.2806C5.84 12.3139 5.75333 12.3339 5.66667 12.3339Z" fill="#667085"/>
</svg>
