<svg width="29" height="29" viewBox="0 0 29 29" fill="none" xmlns="http://www.w3.org/2000/svg">
<path d="M2.80859 2.81055H4.88003C6.16574 2.81055 7.17764 3.91769 7.0705 5.1915L6.0824 17.0486C5.91574 18.9891 7.45144 20.6558 9.40382 20.6558H22.0824C23.7967 20.6558 25.2967 19.251 25.4276 17.5486L26.0705 8.62008C26.2133 6.64389 24.7134 5.03673 22.7253 5.03673H7.35622" stroke="#3F414A" stroke-width="1.78571" stroke-miterlimit="10" stroke-linecap="round" stroke-linejoin="round"/>
<path d="M19.7733 26.6207C20.5951 26.6207 21.2613 25.9545 21.2613 25.1326C21.2613 24.3108 20.5951 23.6445 19.7733 23.6445C18.9514 23.6445 18.2852 24.3108 18.2852 25.1326C18.2852 25.9545 18.9514 26.6207 19.7733 26.6207Z" stroke="#3F414A" stroke-width="1.78571" stroke-miterlimit="10" stroke-linecap="round" stroke-linejoin="round"/>
<path d="M10.2498 26.6207C11.0717 26.6207 11.7379 25.9545 11.7379 25.1326C11.7379 24.3108 11.0717 23.6445 10.2498 23.6445C9.42796 23.6445 8.76172 24.3108 8.76172 25.1326C8.76172 25.9545 9.42796 26.6207 10.2498 26.6207Z" stroke="#3F414A" stroke-width="1.78571" stroke-miterlimit="10" stroke-linecap="round" stroke-linejoin="round"/>
<path d="M11.1426 9.95312H25.4283" stroke="#3F414A" stroke-width="1.78571" stroke-miterlimit="10" stroke-linecap="round" stroke-linejoin="round"/>
</svg>
