<svg width="16" height="16" viewBox="0 0 16 16" fill="none" xmlns="http://www.w3.org/2000/svg">
<path d="M14.6693 4.16683V7.56681C14.6693 8.41348 14.3893 9.12682 13.8893 9.62016C13.3959 10.1202 12.6826 10.4001 11.8359 10.4001V11.6068C11.8359 12.0601 11.3293 12.3335 10.9559 12.0802L10.3093 11.6535C10.3693 11.4468 10.3959 11.2201 10.3959 10.9801V8.26685C10.3959 6.90685 9.48927 6.00016 8.12927 6.00016H3.6026C3.50927 6.00016 3.4226 6.00684 3.33594 6.01351V4.16683C3.33594 2.46683 4.46927 1.3335 6.16927 1.3335H11.8359C13.5359 1.3335 14.6693 2.46683 14.6693 4.16683Z" stroke="#667085" stroke-miterlimit="10" stroke-linecap="round" stroke-linejoin="round"/>
<path d="M10.3959 8.26668V10.98C10.3959 11.22 10.3693 11.4467 10.3093 11.6533C10.0626 12.6333 9.24927 13.2467 8.12927 13.2467H6.31594L4.3026 14.5867C4.0026 14.7933 3.6026 14.5733 3.6026 14.2133V13.2467C2.9226 13.2467 2.35594 13.02 1.96261 12.6267C1.56261 12.2267 1.33594 11.66 1.33594 10.98V8.26668C1.33594 7.00002 2.1226 6.12668 3.33594 6.01335C3.4226 6.00668 3.50927 6 3.6026 6H8.12927C9.48927 6 10.3959 6.90668 10.3959 8.26668Z" stroke="#667085" stroke-miterlimit="10" stroke-linecap="round" stroke-linejoin="round"/>
</svg>
