<svg width="20" height="21" viewBox="0 0 20 21" fill="none" xmlns="http://www.w3.org/2000/svg">
<path opacity="0.4" d="M9.99935 18.8337C14.6017 18.8337 18.3327 15.1027 18.3327 10.5003C18.3327 5.89795 14.6017 2.16699 9.99935 2.16699C5.39698 2.16699 1.66602 5.89795 1.66602 10.5003C1.66602 15.1027 5.39698 18.8337 9.99935 18.8337Z" fill="#6A6C77"/>
<path d="M13.0928 13.7745C12.9845 13.7745 12.8762 13.7495 12.7762 13.6828L10.1928 12.1411C9.55117 11.7578 9.07617 10.9161 9.07617 10.1745V6.75781C9.07617 6.41615 9.35951 6.13281 9.70117 6.13281C10.0428 6.13281 10.3262 6.41615 10.3262 6.75781V10.1745C10.3262 10.4745 10.5762 10.9161 10.8345 11.0661L13.4178 12.6078C13.7178 12.7828 13.8095 13.1661 13.6345 13.4661C13.5095 13.6661 13.3012 13.7745 13.0928 13.7745Z" fill="#0D0E15"/>
</svg>
