<svg width="16" height="17" viewBox="0 0 16 17" fill="none" xmlns="http://www.w3.org/2000/svg">
<path d="M11.4142 4.03683H11.7056C11.9551 4.03683 12.1783 4.14933 12.3272 4.32637H3.63502C3.78395 4.14933 4.00712 4.03683 4.25657 4.03683H4.47893H11.4142ZM12.5175 5.07451V5.32699H8.01816H3.44472V5.07451H12.5175ZM3.44472 6.07513H8.01816H12.5175V7.84707H3.44472V6.07513ZM10.8685 3.28869H5.02459C5.54049 2.2437 6.63991 1.59087 7.94656 1.59087C9.25321 1.59087 10.3526 2.2437 10.8685 3.28869ZM12.5175 8.59522V8.8477H3.44472V8.59522H12.5175ZM3.44472 9.59584H12.5175V11.3678H3.44472V9.59584ZM12.5175 12.1159V12.3684H3.44472V12.1159H12.5175ZM3.44472 13.1165H12.5175V14.892C12.5175 15.1766 12.2867 15.4073 12.0021 15.4073H3.96009C3.67546 15.4073 3.44472 15.1766 3.44472 14.892V13.1165Z" stroke="#545661" stroke-width="0.748142"/>
<rect x="6.66797" y="7.16602" width="9.33333" height="9.33333" rx="4.66667" fill="#FFFAEC"/>
<path d="M11.2208 7.66981C11.2482 7.54853 11.421 7.54853 11.4484 7.66981L11.9804 10.0247C11.9981 10.1033 12.0883 10.1407 12.1565 10.0976L14.1978 8.80862C14.3029 8.74223 14.4251 8.86443 14.3587 8.96956L13.0697 11.0109C13.0266 11.079 13.064 11.1692 13.1426 11.1869L15.4975 11.7189C15.6188 11.7463 15.6188 11.9191 15.4975 11.9465L13.1426 12.4784C13.064 12.4962 13.0266 12.5864 13.0697 12.6545L14.3587 14.6958C14.4251 14.8009 14.3029 14.9231 14.1978 14.8567L12.1565 13.5677C12.0883 13.5247 11.9981 13.5621 11.9804 13.6407L11.4484 15.9956C11.421 16.1168 11.2482 16.1168 11.2208 15.9956L10.6889 13.6407C10.6711 13.5621 10.5809 13.5247 10.5128 13.5677L8.47151 14.8567C8.36638 14.9231 8.24418 14.8009 8.31057 14.6958L9.5996 12.6545C9.64263 12.5864 9.60527 12.4962 9.52666 12.4784L7.17176 11.9465C7.05048 11.9191 7.05048 11.7463 7.17176 11.7189L9.52666 11.1869C9.60526 11.1692 9.64263 11.079 9.5996 11.0109L8.31057 8.96956C8.24419 8.86443 8.36638 8.74223 8.47151 8.80862L10.5128 10.0976C10.5809 10.1407 10.6711 10.1033 10.6889 10.0247L11.2208 7.66981Z" fill="#F4B000"/>
<circle cx="11.334" cy="11.832" r="1.95" fill="#F4B000" stroke="white" stroke-width="0.4"/>
</svg>
