<svg width="31" height="31" viewBox="0 0 31 31" fill="none" xmlns="http://www.w3.org/2000/svg">
<rect width="31" height="31" rx="15.5" fill="#FFF0E7"/>
<path d="M21.5004 11.9863C21.4871 11.9863 21.4671 11.9863 21.4471 11.9863C17.9204 11.633 14.4004 11.4997 10.9138 11.853L9.55377 11.9863C9.27377 12.013 9.0271 11.813 9.00043 11.533C8.97377 11.253 9.17377 11.013 9.4471 10.9863L10.8071 10.853C14.3538 10.493 17.9471 10.633 21.5471 10.9863C21.8204 11.013 22.0204 11.2597 21.9938 11.533C21.9738 11.793 21.7538 11.9863 21.5004 11.9863Z" fill="#DE5200"/>
<path d="M13.1665 11.314C13.1398 11.314 13.1132 11.314 13.0798 11.3073C12.8132 11.2607 12.6265 11.0007 12.6732 10.734L12.8198 9.86065C12.9265 9.22065 13.0732 8.33398 14.6265 8.33398H16.3732C17.9332 8.33398 18.0798 9.25398 18.1798 9.86732L18.3265 10.734C18.3732 11.0073 18.1865 11.2673 17.9198 11.3073C17.6465 11.354 17.3865 11.1673 17.3465 10.9007L17.1998 10.034C17.1065 9.45398 17.0865 9.34065 16.3798 9.34065H14.6332C13.9265 9.34065 13.9132 9.43398 13.8132 10.0273L13.6598 10.894C13.6198 11.1407 13.4065 11.314 13.1665 11.314Z" fill="#DE5200"/>
<path d="M17.6396 22.6657H13.3596C11.0329 22.6657 10.9396 21.3791 10.8663 20.3391L10.4329 13.6257C10.4129 13.3524 10.6263 13.1124 10.8996 13.0924C11.1796 13.0791 11.4129 13.2857 11.4329 13.5591L11.8663 20.2724C11.9396 21.2857 11.9663 21.6657 13.3596 21.6657H17.6396C19.0396 21.6657 19.0663 21.2857 19.1329 20.2724L19.5663 13.5591C19.5863 13.2857 19.8263 13.0791 20.0996 13.0924C20.3729 13.1124 20.5863 13.3457 20.5663 13.6257L20.1329 20.3391C20.0596 21.3791 19.9663 22.6657 17.6396 22.6657Z" fill="#DE5200"/>
<path d="M16.6067 19H14.3867C14.1134 19 13.8867 18.7733 13.8867 18.5C13.8867 18.2267 14.1134 18 14.3867 18H16.6067C16.8801 18 17.1067 18.2267 17.1067 18.5C17.1067 18.7733 16.8801 19 16.6067 19Z" fill="#DE5200"/>
<path d="M17.1673 16.334H13.834C13.5607 16.334 13.334 16.1073 13.334 15.834C13.334 15.5607 13.5607 15.334 13.834 15.334H17.1673C17.4407 15.334 17.6673 15.5607 17.6673 15.834C17.6673 16.1073 17.4407 16.334 17.1673 16.334Z" fill="#DE5200"/>
</svg>
