<svg width="97" height="31" viewBox="0 0 97 31" fill="none" xmlns="http://www.w3.org/2000/svg">
<rect x="0.5" y="0.5" width="96" height="30" rx="15" stroke="#E3E4E9"/>
<path d="M16.6297 11.3016L12.5247 15.6466C12.3697 15.8116 12.2197 16.1366 12.1897 16.3616L12.0047 17.9816C11.9397 18.5666 12.3597 18.9666 12.9397 18.8666L14.5497 18.5916C14.7747 18.5516 15.0897 18.3866 15.2447 18.2166L19.3497 13.8716C20.0597 13.1216 20.3797 12.2666 19.2747 11.2216C18.1747 10.1866 17.3397 10.5516 16.6297 11.3016Z" stroke="#545661" stroke-width="1.125" stroke-miterlimit="10" stroke-linecap="round" stroke-linejoin="round"/>
<path d="M15.9453 12.0254C16.1603 13.4054 17.2803 14.4604 18.6703 14.6004" stroke="#545661" stroke-width="1.125" stroke-miterlimit="10" stroke-linecap="round" stroke-linejoin="round"/>
<path d="M11.5 20.5H20.5" stroke="#545661" stroke-width="1.125" stroke-miterlimit="10" stroke-linecap="round" stroke-linejoin="round"/>
<path d="M30.016 12.024V14.82H33.064V15.72H30.016V18.6H33.424V19.5H28.924V11.124H33.424V12.024H30.016ZM34.6683 16.188C34.6683 15.516 34.8043 14.928 35.0763 14.424C35.3483 13.912 35.7203 13.516 36.1923 13.236C36.6723 12.956 37.2083 12.816 37.8003 12.816C38.3123 12.816 38.7883 12.936 39.2283 13.176C39.6683 13.408 40.0043 13.716 40.2363 14.1V10.62H41.3403V19.5H40.2363V18.264C40.0203 18.656 39.7003 18.98 39.2763 19.236C38.8523 19.484 38.3563 19.608 37.7883 19.608C37.2043 19.608 36.6723 19.464 36.1923 19.176C35.7203 18.888 35.3483 18.484 35.0763 17.964C34.8043 17.444 34.6683 16.852 34.6683 16.188ZM40.2363 16.2C40.2363 15.704 40.1363 15.272 39.9363 14.904C39.7363 14.536 39.4643 14.256 39.1203 14.064C38.7843 13.864 38.4123 13.764 38.0043 13.764C37.5963 13.764 37.2243 13.86 36.8883 14.052C36.5523 14.244 36.2843 14.524 36.0843 14.892C35.8843 15.26 35.7843 15.692 35.7843 16.188C35.7843 16.692 35.8843 17.132 36.0843 17.508C36.2843 17.876 36.5523 18.16 36.8883 18.36C37.2243 18.552 37.5963 18.648 38.0043 18.648C38.4123 18.648 38.7843 18.552 39.1203 18.36C39.4643 18.16 39.7363 17.876 39.9363 17.508C40.1363 17.132 40.2363 16.696 40.2363 16.2ZM43.7497 11.856C43.5417 11.856 43.3657 11.784 43.2217 11.64C43.0777 11.496 43.0057 11.32 43.0057 11.112C43.0057 10.904 43.0777 10.728 43.2217 10.584C43.3657 10.44 43.5417 10.368 43.7497 10.368C43.9497 10.368 44.1177 10.44 44.2537 10.584C44.3977 10.728 44.4697 10.904 44.4697 11.112C44.4697 11.32 44.3977 11.496 44.2537 11.64C44.1177 11.784 43.9497 11.856 43.7497 11.856ZM44.2777 12.924V19.5H43.1857V12.924H44.2777ZM47.4708 13.824V17.7C47.4708 18.02 47.5388 18.248 47.6748 18.384C47.8108 18.512 48.0468 18.576 48.3828 18.576H49.1868V19.5H48.2028C47.5948 19.5 47.1388 19.36 46.8348 19.08C46.5308 18.8 46.3788 18.34 46.3788 17.7V13.824H45.5268V12.924H46.3788V11.268H47.4708V12.924H49.1868V13.824H47.4708ZM57.5012 19.584C56.7252 19.584 56.0172 19.404 55.3772 19.044C54.7372 18.676 54.2292 18.168 53.8532 17.52C53.4852 16.864 53.3012 16.128 53.3012 15.312C53.3012 14.496 53.4852 13.764 53.8532 13.116C54.2292 12.46 54.7372 11.952 55.3772 11.592C56.0172 11.224 56.7252 11.04 57.5012 11.04C58.2852 11.04 58.9972 11.224 59.6372 11.592C60.2772 11.952 60.7812 12.456 61.1492 13.104C61.5172 13.752 61.7012 14.488 61.7012 15.312C61.7012 16.136 61.5172 16.872 61.1492 17.52C60.7812 18.168 60.2772 18.676 59.6372 19.044C58.9972 19.404 58.2852 19.584 57.5012 19.584ZM57.5012 18.636C58.0852 18.636 58.6092 18.5 59.0732 18.228C59.5452 17.956 59.9132 17.568 60.1772 17.064C60.4492 16.56 60.5852 15.976 60.5852 15.312C60.5852 14.64 60.4492 14.056 60.1772 13.56C59.9132 13.056 59.5492 12.668 59.0852 12.396C58.6212 12.124 58.0932 11.988 57.5012 11.988C56.9092 11.988 56.3812 12.124 55.9172 12.396C55.4532 12.668 55.0852 13.056 54.8132 13.56C54.5492 14.056 54.4172 14.64 54.4172 15.312C54.4172 15.976 54.5492 16.56 54.8132 17.064C55.0852 17.568 55.4532 17.956 55.9172 18.228C56.3892 18.5 56.9172 18.636 57.5012 18.636ZM64.2348 13.992C64.4268 13.616 64.6988 13.324 65.0508 13.116C65.4108 12.908 65.8468 12.804 66.3588 12.804V13.932H66.0708C64.8468 13.932 64.2348 14.596 64.2348 15.924V19.5H63.1428V12.924H64.2348V13.992ZM67.2113 16.188C67.2113 15.516 67.3473 14.928 67.6193 14.424C67.8913 13.912 68.2633 13.516 68.7353 13.236C69.2153 12.956 69.7513 12.816 70.3433 12.816C70.8553 12.816 71.3313 12.936 71.7713 13.176C72.2113 13.408 72.5473 13.716 72.7793 14.1V10.62H73.8833V19.5H72.7793V18.264C72.5633 18.656 72.2433 18.98 71.8193 19.236C71.3953 19.484 70.8993 19.608 70.3313 19.608C69.7473 19.608 69.2153 19.464 68.7353 19.176C68.2633 18.888 67.8913 18.484 67.6193 17.964C67.3473 17.444 67.2113 16.852 67.2113 16.188ZM72.7793 16.2C72.7793 15.704 72.6793 15.272 72.4793 14.904C72.2793 14.536 72.0073 14.256 71.6633 14.064C71.3273 13.864 70.9553 13.764 70.5473 13.764C70.1393 13.764 69.7673 13.86 69.4313 14.052C69.0953 14.244 68.8273 14.524 68.6273 14.892C68.4273 15.26 68.3273 15.692 68.3273 16.188C68.3273 16.692 68.4273 17.132 68.6273 17.508C68.8273 17.876 69.0953 18.16 69.4313 18.36C69.7673 18.552 70.1393 18.648 70.5473 18.648C70.9553 18.648 71.3273 18.552 71.6633 18.36C72.0073 18.16 72.2793 17.876 72.4793 17.508C72.6793 17.132 72.7793 16.696 72.7793 16.2ZM81.7287 15.96C81.7287 16.168 81.7167 16.388 81.6927 16.62H76.4367C76.4767 17.268 76.6967 17.776 77.0967 18.144C77.5047 18.504 77.9967 18.684 78.5727 18.684C79.0447 18.684 79.4367 18.576 79.7487 18.36C80.0687 18.136 80.2927 17.84 80.4207 17.472H81.5967C81.4207 18.104 81.0687 18.62 80.5407 19.02C80.0127 19.412 79.3567 19.608 78.5727 19.608C77.9487 19.608 77.3887 19.468 76.8927 19.188C76.4047 18.908 76.0207 18.512 75.7407 18C75.4607 17.48 75.3207 16.88 75.3207 16.2C75.3207 15.52 75.4567 14.924 75.7287 14.412C76.0007 13.9 76.3807 13.508 76.8687 13.236C77.3647 12.956 77.9327 12.816 78.5727 12.816C79.1967 12.816 79.7487 12.952 80.2287 13.224C80.7087 13.496 81.0767 13.872 81.3327 14.352C81.5967 14.824 81.7287 15.36 81.7287 15.96ZM80.6007 15.732C80.6007 15.316 80.5087 14.96 80.3247 14.664C80.1407 14.36 79.8887 14.132 79.5687 13.98C79.2567 13.82 78.9087 13.74 78.5247 13.74C77.9727 13.74 77.5007 13.916 77.1087 14.268C76.7247 14.62 76.5047 15.108 76.4487 15.732H80.6007ZM84.2621 13.992C84.4541 13.616 84.7261 13.324 85.0781 13.116C85.4381 12.908 85.8741 12.804 86.3861 12.804V13.932H86.0981C84.8741 13.932 84.2621 14.596 84.2621 15.924V19.5H83.1701V12.924H84.2621V13.992Z" fill="#373A4F"/>
</svg>
