<svg width="168" height="186" viewBox="0 0 168 186" fill="none" xmlns="http://www.w3.org/2000/svg">
<mask id="mask0_4566_40840" style="mask-type:luminance" maskUnits="userSpaceOnUse" x="0" y="18" width="168" height="168">
<path d="M168 18H0V186H168V18Z" fill="white"/>
</mask>
<g mask="url(#mask0_4566_40840)">
<path d="M83.9978 18.9258C129.845 18.9258 167.07 56.1504 167.07 101.998C167.07 147.845 129.845 185.07 83.9978 185.07C38.1504 185.07 0.925781 147.845 0.925781 101.998C0.925781 56.1504 38.1504 18.9258 83.9978 18.9258Z" fill="#ECECEC"/>
<mask id="mask1_4566_40840" style="mask-type:alpha" maskUnits="userSpaceOnUse" x="0" y="18" width="168" height="168">
<path d="M83.9959 18.9258C129.843 18.9258 167.068 56.1504 167.068 101.998C167.068 147.845 129.843 185.07 83.9959 185.07C38.1484 185.07 0.923828 147.845 0.923828 101.998C0.923828 56.1504 38.1484 18.9258 83.9959 18.9258Z" fill="#FFD400"/>
</mask>
<g mask="url(#mask1_4566_40840)">
<mask id="mask2_4566_40840" style="mask-type:luminance" maskUnits="userSpaceOnUse" x="48" y="59" width="86" height="86">
<path d="M48 59.1484H133.714V144.863H48V59.1484Z" fill="white"/>
</mask>
<g mask="url(#mask2_4566_40840)">
<path d="M47.9961 107.825C47.9961 128.182 64.4978 144.682 84.8532 144.682C105.209 144.682 121.71 128.182 121.71 107.825C121.71 87.4697 47.9961 87.4697 47.9961 107.825Z" fill="#A7A7A7"/>
<path d="M84.8791 94.2695C68.5934 94.2661 52.3008 98.1301 52.3008 105.867C52.3008 114.472 75.5002 117.567 84.8174 117.567C94.1328 117.567 117.403 114.472 117.403 105.867C117.403 98.1404 101.146 94.273 84.8791 94.2695Z" fill="#D8D8D8"/>
<path d="M93.1963 106.764C93.7192 107.215 94.6278 108.35 95.1249 107.854L131.997 69.8641C132.009 69.8521 132.018 69.8418 132.027 69.8315C132.786 69.0412 132.726 67.8464 131.893 67.1641L130.94 66.3824C130.926 66.3721 130.914 66.3618 130.9 66.3515C130.048 65.6881 128.761 65.8064 128.025 66.6138L93.1003 104.962C92.6152 105.499 92.6529 106.281 93.1843 106.752C93.1878 106.757 93.1912 106.761 93.1963 106.764Z" fill="#969696"/>
<path d="M88.2973 103.292C88.8579 103.693 89.8625 104.747 90.315 104.209L123.733 63.1499C123.744 63.1379 123.754 63.1259 123.762 63.1139C124.448 62.2619 124.284 61.0773 123.394 60.4704L122.377 59.7744C122.364 59.7642 122.348 59.7556 122.334 59.7453C121.428 59.1607 120.156 59.3904 119.492 60.2579L88.047 101.505C87.6082 102.081 87.711 102.858 88.2836 103.281C88.287 103.285 88.2922 103.288 88.2973 103.292Z" fill="#969696"/>
<path d="M84.8832 84.5703C60.8232 84.5703 58.8587 112.839 60.0809 113.322C67.6975 116.348 78.9861 117.563 84.8232 117.563C90.6792 117.563 102.05 116.339 109.687 113.293C110.846 112.832 108.942 84.5703 84.8832 84.5703Z" fill="white"/>
<path d="M80.3371 91.7891C78.9159 91.7891 77.7656 92.9393 77.7656 94.3605C77.7656 95.7799 78.9159 96.9319 80.3371 96.9319C81.7582 96.9319 82.9085 95.7799 82.9085 94.3605C82.9085 92.9393 81.7582 91.7891 80.3371 91.7891Z" fill="#E7E7E7"/>
<path d="M94.4816 94.2109C93.0622 94.2109 91.9102 95.3612 91.9102 96.7824C91.9102 98.2018 93.0622 99.3538 94.4816 99.3538C95.901 99.3538 97.053 98.2018 97.053 96.7824C97.053 95.3612 95.901 94.2109 94.4816 94.2109Z" fill="#E7E7E7"/>
<path d="M71.9953 102.742C70.5741 102.742 69.4238 103.892 69.4238 105.314C69.4238 106.733 70.5741 107.885 71.9953 107.885C73.4164 107.885 74.5667 106.733 74.5667 105.314C74.5667 103.892 73.4164 102.742 71.9953 102.742Z" fill="#E7E7E7"/>
<path d="M85.4796 105.32C84.0585 105.32 82.9082 106.471 82.9082 107.892C82.9082 109.311 84.0585 110.463 85.4796 110.463C86.9008 110.463 88.0511 109.311 88.0511 107.892C88.0511 106.471 86.9008 105.32 85.4796 105.32Z" fill="#E7E7E7"/>
<path d="M101.485 105.32C100.066 105.32 98.9141 106.471 98.9141 107.892C98.9141 109.311 100.066 110.463 101.485 110.463C102.905 110.463 104.057 109.311 104.057 107.892C104.057 106.471 102.905 105.32 101.485 105.32Z" fill="#E7E7E7"/>
</g>
</g>
</g>
<rect x="66" width="36" height="36" rx="18" fill="#0D0E15"/>
<path opacity="0.4" d="M83.9993 26.3346C88.6017 26.3346 92.3327 22.6037 92.3327 18.0013C92.3327 13.3989 88.6017 9.66797 83.9993 9.66797C79.397 9.66797 75.666 13.3989 75.666 18.0013C75.666 22.6037 79.397 26.3346 83.9993 26.3346Z" fill="white"/>
<path d="M84.8841 18.0008L86.8008 16.0841C87.0424 15.8424 87.0424 15.4424 86.8008 15.2008C86.5591 14.9591 86.1591 14.9591 85.9174 15.2008L84.0008 17.1174L82.0841 15.2008C81.8424 14.9591 81.4424 14.9591 81.2008 15.2008C80.9591 15.4424 80.9591 15.8424 81.2008 16.0841L83.1174 18.0008L81.2008 19.9174C80.9591 20.1591 80.9591 20.5591 81.2008 20.8008C81.3258 20.9258 81.4841 20.9841 81.6424 20.9841C81.8008 20.9841 81.9591 20.9258 82.0841 20.8008L84.0008 18.8841L85.9174 20.8008C86.0424 20.9258 86.2008 20.9841 86.3591 20.9841C86.5174 20.9841 86.6758 20.9258 86.8008 20.8008C87.0424 20.5591 87.0424 20.1591 86.8008 19.9174L84.8841 18.0008Z" fill="white"/>
</svg>
