<svg width="20" height="20" viewBox="0 0 20 20" fill="none" xmlns="http://www.w3.org/2000/svg">
<path d="M2.99988 10L1.13706 13.6349C0.81736 14.2588 1.27039 15 1.97139 15H9.37488L7.49988 10H2.99988Z" fill="#0D0E15"/>
<path d="M18.7499 15H9.37488M9.37488 15H1.97139C1.27039 15 0.81736 14.2588 1.13706 13.6349L2.99988 10H7.49988L9.37488 15Z" stroke="#6A6C77" stroke-width="1.25" stroke-linecap="round" stroke-linejoin="round"/>
<path d="M3.75 10L1.25 10" stroke="#6A6C77" stroke-width="1.25" stroke-linecap="round" stroke-linejoin="round"/>
<rect x="13.75" y="2.5" width="1.75" height="2.5" rx="0.875" fill="#0D0E15" stroke="#6A6C77" stroke-width="1.25"/>
<path d="M14.375 2.5V2.5C13.3214 2.85119 12.7231 3.96163 13.0093 5.03469L15 12.5" stroke="#6A6C77" stroke-width="1.25" stroke-linecap="round" stroke-linejoin="round"/>
<path d="M14.3456 8.05326L14.2739 7.43239L13.0321 7.57588L13.1039 8.19674L14.3456 8.05326ZM9.23518 12.8239C9.06888 12.5214 8.68886 12.411 8.38638 12.5773C8.08391 12.7436 7.97352 13.1236 8.13982 13.4261L9.23518 12.8239ZM11.1055 14.8077L11.2571 14.2013L11.1055 14.8077ZM13.1039 8.19674L13.5241 11.8328L14.7658 11.6893L14.3456 8.05326L13.1039 8.19674ZM11.2571 14.2013L10.6271 14.0438L10.3239 15.2565L10.9539 15.414L11.2571 14.2013ZM9.3758 13.0797L9.23518 12.8239L8.13982 13.4261L8.28044 13.6819L9.3758 13.0797ZM10.6271 14.0438C10.094 13.9106 9.64054 13.5612 9.3758 13.0797L8.28044 13.6819C8.71279 14.4683 9.4533 15.0389 10.3239 15.2565L10.6271 14.0438ZM12.3045 14.0864C11.9803 14.2485 11.6087 14.2893 11.2571 14.2013L10.9539 15.414C11.5951 15.5743 12.2724 15.5 12.8635 15.2044L12.3045 14.0864ZM13.5241 11.8328C13.6319 12.7657 13.1444 13.6664 12.3045 14.0864L12.8635 15.2044C14.1737 14.5493 14.9339 13.1445 14.7658 11.6893L13.5241 11.8328Z" fill="#6A6C77"/>
<path d="M16.1504 18.2031C17.5311 18.2031 18.6504 17.0838 18.6504 15.7031C18.6504 14.3224 17.5311 13.2031 16.1504 13.2031C14.7697 13.2031 13.6504 14.3224 13.6504 15.7031C13.6504 17.0838 14.7697 18.2031 16.1504 18.2031Z" stroke="#6A6C77" stroke-width="1.25"/>
<path d="M13.125 14.8403C13.4731 13.4942 14.6958 12.5 16.1507 12.5C17.6055 12.5 18.8282 13.4942 19.1763 14.8403" stroke="#6A6C77" stroke-width="1.25" stroke-linecap="round"/>
<path d="M6.875 15.7031C6.875 17.0838 5.75571 18.2031 4.375 18.2031C2.99429 18.2031 1.875 17.0838 1.875 15.7031" stroke="#6A6C77" stroke-width="1.25"/>
<rect x="15" y="13.75" width="2.5" height="1.25" fill="#6A6C77"/>
<rect x="1.875" y="3.125" width="5" height="5" rx="1.875" fill="#0D0E15" stroke="#6A6C77" stroke-width="1.25"/>
</svg>
