<svg width="20" height="20" viewBox="0 0 20 20" fill="none" xmlns="http://www.w3.org/2000/svg">
<path opacity="0.4" d="M17.1829 7.04232C16.3079 3.19232 12.9496 1.45898 9.99959 1.45898C9.99959 1.45898 9.99959 1.45898 9.99126 1.45898C7.04959 1.45898 3.68292 3.18398 2.80792 7.03398C1.83292 11.334 4.46626 14.9756 6.84959 17.2673C7.73292 18.1173 8.86626 18.5423 9.99959 18.5423C11.1329 18.5423 12.2663 18.1173 13.1413 17.2673C15.5246 14.9756 18.1579 11.3423 17.1829 7.04232Z" fill="#667085"/>
<path d="M10 11.2168C11.4497 11.2168 12.625 10.0415 12.625 8.5918C12.625 7.14205 11.4497 5.9668 10 5.9668C8.55025 5.9668 7.375 7.14205 7.375 8.5918C7.375 10.0415 8.55025 11.2168 10 11.2168Z" fill="#0D0E15"/>
</svg>
