<svg width="201" height="32" viewBox="0 0 201 32" fill="none" xmlns="http://www.w3.org/2000/svg">
<path d="M40.3284 8.00391V11.8699H35.0768V27.807H30.2641V11.8699H25.0273V8.00391H40.3284Z" fill="#3F414A"/>
<path d="M42.7402 8.00391H47.5529V27.807H42.7402V8.00391Z" fill="#3F414A"/>
<path d="M63.9194 8.00391V11.8699H55.8768V16.0465H61.9026V19.7965H55.8768V27.807H51.0469V8.00391H63.9194Z" fill="#3F414A"/>
<path d="M79.3217 8.00391V11.8699H71.2669V16.0465H77.2926V19.7965H71.2669V27.807H66.4492V8.00391H79.3217Z" fill="#3F414A"/>
<path d="M81.8672 8.00391H86.6725V27.807H81.8672V8.00391Z" fill="#3F414A"/>
<path d="M107.857 27.807H103.037L94.9842 15.6051V27.8194H90.1641V8.00391H94.9842L103.037 20.2773V8.00391H107.857V27.807Z" fill="#3F414A"/>
<path d="M114.61 27.3048C113.498 26.8684 112.583 26.1731 111.863 25.2165C111.143 24.2254 110.778 23.1159 110.773 21.8881H115.897C115.929 22.5488 116.183 23.1085 116.659 23.5671C117.149 23.9838 117.716 24.1761 118.357 24.144C118.984 24.1835 119.551 24.0207 120.059 23.6583C120.266 23.4931 120.424 23.2885 120.532 23.0493C120.643 22.8077 120.69 22.5537 120.677 22.2899C120.695 21.8116 120.532 21.4073 120.192 21.072C119.834 20.7366 119.43 20.4728 118.979 20.2855C118.311 20.0118 117.63 19.7751 116.937 19.5803C115.865 19.2623 114.824 18.8678 113.811 18.3944C112.975 17.9802 112.28 17.3983 111.728 16.6439C111.143 15.8722 110.852 14.8662 110.852 13.6285C110.852 11.7843 111.518 10.3395 112.852 9.29659C114.183 8.25367 115.921 7.73098 118.062 7.72852C120.241 7.72852 121.999 8.25121 123.33 9.29659C124.664 10.342 125.372 11.7966 125.453 13.6606H120.246C120.234 13.0541 119.999 12.5511 119.541 12.1541C119.058 11.7597 118.503 11.5772 117.879 11.6043C117.351 11.5772 116.881 11.7325 116.471 12.0678C116.079 12.4303 115.902 12.8765 115.936 13.4091C115.936 13.7222 116.018 14.0107 116.18 14.2794C116.346 14.5457 116.565 14.7503 116.846 14.8909C117.743 15.3741 118.683 15.7612 119.659 16.0497C120.724 16.3949 121.762 16.8091 122.773 17.2898C123.594 17.704 124.28 18.281 124.834 19.0157C125.414 19.7652 125.705 20.7342 125.707 21.9201C125.719 23.0296 125.431 24.0553 124.847 24.9946C124.225 25.966 123.394 26.6958 122.354 27.1865C121.134 27.7708 119.849 28.0469 118.498 28.0174C117.154 28.0371 115.86 27.7979 114.61 27.3048Z" fill="#DE5200"/>
<path d="M142.885 8.00391V11.8699H137.648V27.807H132.831V11.8699H127.594V8.00391H142.885Z" fill="#DE5200"/>
<path d="M157.614 24.3109H150.235L149.051 27.807H144.012L151.167 8.00391H156.754L163.906 27.807H158.805L157.614 24.3109ZM156.376 20.5855L153.926 13.3368L151.497 20.5855H156.376Z" fill="#DE5200"/>
<path d="M169.329 27.3064C168.218 26.87 167.303 26.1747 166.585 25.2181C165.865 24.2244 165.505 23.115 165.498 21.8896H170.626C170.656 22.5503 170.91 23.11 171.388 23.5686C171.879 23.9853 172.446 24.1776 173.087 24.1455C173.711 24.185 174.278 24.0223 174.788 23.6598C174.993 23.4897 175.146 23.2851 175.252 23.0435C175.358 22.8018 175.402 22.5479 175.385 22.2841C175.402 21.8082 175.239 21.4014 174.899 21.0686C174.544 20.7283 174.137 20.467 173.686 20.2796C173.018 20.0059 172.335 19.7717 171.642 19.5745C170.57 19.2564 169.529 18.8619 168.516 18.3885C167.68 17.9743 166.985 17.39 166.432 16.638C165.848 15.8663 165.557 14.8604 165.56 13.6227C165.56 11.7785 166.225 10.3337 167.559 9.29073C168.891 8.24781 170.629 7.72512 172.769 7.72266C174.946 7.72266 176.701 8.24535 178.035 9.29073C179.369 10.3361 180.082 11.7932 180.173 13.6621H174.963C174.951 13.0556 174.717 12.5526 174.258 12.1557C173.772 11.7612 173.22 11.5787 172.596 11.6059C172.069 11.5787 171.598 11.7341 171.188 12.0694C170.796 12.4318 170.619 12.8781 170.653 13.4106C170.651 13.7238 170.73 14.0172 170.893 14.2859C171.053 14.5546 171.275 14.7617 171.553 14.9047C172.453 15.388 173.393 15.7751 174.371 16.0611C175.437 16.4112 176.472 16.8229 177.483 17.3037C178.306 17.713 178.997 18.285 179.554 19.0172C180.133 19.7668 180.424 20.7357 180.424 21.9216C180.437 23.0287 180.151 24.0543 179.569 24.9962C178.948 25.9651 178.117 26.6949 177.076 27.188C175.856 27.7723 174.569 28.0485 173.215 28.0189C171.874 28.0386 170.577 27.7995 169.329 27.3064Z" fill="#DE5200"/>
<path d="M200.506 8.00391V27.807H195.691V19.656H188.198V27.807H183.383V8.00391H188.198V15.7629H195.691V8.00391H200.506Z" fill="#DE5200"/>
<path d="M10.1221 22.2526H0.491698C-0.0556494 22.2526 0.0059891 22.3093 0.0059891 21.7669V14.0818C0.0059891 13.9955 0.0059891 13.9067 0.0059891 13.8205C0.0059891 13.6158 0.025713 13.5764 0.247611 13.5764H19.6538C20.3195 13.5764 20.2233 13.4851 20.2258 14.1632C20.2258 16.6755 20.2258 19.1904 20.2258 21.7052C20.2258 21.8211 20.2258 21.9493 20.2258 22.0553C20.2258 22.2328 20.2011 22.2501 20.0162 22.255C19.9003 22.255 19.7746 22.255 19.6636 22.255L10.1221 22.2526Z" fill="#3F414A"/>
<path d="M10.1239 23.317H19.7542C20.2745 23.317 20.2276 23.2726 20.2276 23.783C20.2276 25.3757 20.2276 26.9709 20.2276 28.5612C20.2251 28.9286 20.1684 29.2885 20.0526 29.6386C19.9367 29.9887 19.7715 30.3117 19.5521 30.6076C19.3326 30.9034 19.0737 31.1574 18.7754 31.3719C18.4746 31.5839 18.1492 31.7442 17.7991 31.8527C17.518 31.9464 17.232 31.9932 16.9386 31.9981H3.63707C3.29929 32.008 2.96645 31.976 2.63853 31.9069C2.2687 31.8206 1.92353 31.6776 1.60054 31.4755C1.28003 31.2733 0.998955 31.0243 0.762264 30.7284C0.523108 30.4325 0.338193 30.1046 0.209986 29.7471C0.0817784 29.3896 0.0127439 29.0222 0.0078125 28.6426C0.0078125 26.9783 0.0078125 25.3116 0.0078125 23.6375V23.5488C0.0078125 23.3343 0.0300023 23.3047 0.227245 23.3047H10.1239V23.317Z" fill="#DE5200"/>
<path d="M20.2239 7.09112C20.2165 6.73116 20.1549 6.37859 20.0365 6.03834C19.9157 5.6981 19.7481 5.38744 19.5262 5.10144C19.3067 4.81544 19.0454 4.57382 18.7471 4.37165C18.4487 4.17194 18.1257 4.02401 17.7781 3.92785C17.465 3.84895 17.1469 3.80951 16.8239 3.81444C16.3728 3.81444 15.9216 3.81444 15.4704 3.81444C14.7924 3.81444 14.886 3.8958 14.8762 3.2449C14.8762 3.08217 14.8762 2.92192 14.8762 2.75672C14.8712 2.57181 14.8466 2.38936 14.8047 2.20938C14.7628 2.02939 14.7036 1.85434 14.6272 1.68668C14.5507 1.51656 14.4595 1.3563 14.3535 1.20591C14.245 1.05551 14.1242 0.914975 13.9911 0.789232C13.8579 0.661025 13.7125 0.547611 13.5571 0.448989C13.4018 0.347903 13.2366 0.264075 13.064 0.197506C12.8914 0.130936 12.7164 0.07916 12.5339 0.0471083C12.3515 0.0125906 12.169 -0.00220212 11.9841 0.000263247C10.7464 0.000263247 9.50626 0.000263247 8.26856 0.000263247C8.07625 0.00272862 7.88887 0.0224527 7.70149 0.0569704C7.42782 0.103816 7.164 0.192574 6.91499 0.318316C6.66597 0.444059 6.44161 0.604318 6.23943 0.796629C6.03726 0.98894 5.86714 1.20837 5.73153 1.44999C5.59346 1.69408 5.49484 1.9505 5.4332 2.22417C5.36663 2.59893 5.34198 2.97862 5.35924 3.35831C5.35924 3.84402 5.39622 3.81444 4.91791 3.8169H3.3449C2.74578 3.80457 2.18857 3.95497 1.67574 4.26316C1.41932 4.40616 1.1851 4.58122 0.975527 4.78585C0.765958 4.99296 0.58844 5.22225 0.442973 5.47867C0.295042 5.73262 0.184092 6.00136 0.110127 6.28736C0.0361606 6.5709 0.00164386 6.85936 0.0065746 7.15523C-0.00821825 8.77508 0.0065746 10.3949 0.0065746 12.0197C0.0065746 12.5276 -0.0378048 12.4906 0.477491 12.4906H19.6815C19.8122 12.4906 19.9453 12.4906 20.076 12.4906C20.1697 12.4931 20.2165 12.4487 20.2165 12.3526C20.2165 12.2959 20.2165 12.2367 20.2165 12.1775C20.2264 10.4763 20.2362 8.78001 20.2239 7.09112ZM13.7741 3.452C13.779 3.49885 13.7642 3.5383 13.7297 3.57281C13.6977 3.60487 13.6582 3.61966 13.6114 3.61473C13.4807 3.61473 13.35 3.61473 13.2169 3.61473H7.05059C6.9495 3.61473 6.84595 3.61473 6.74486 3.61473C6.46873 3.61473 6.4564 3.59254 6.45147 3.30654C6.45147 3.11669 6.45147 2.92685 6.45147 2.737C6.46133 2.52003 6.5131 2.31293 6.60186 2.11569C6.69062 1.91844 6.81143 1.74339 6.96676 1.59053C7.12209 1.44013 7.29961 1.32179 7.49685 1.23549C7.69656 1.15167 7.90613 1.10482 8.12063 1.09742H12.1074C12.3244 1.10482 12.5315 1.15167 12.7312 1.23796C12.9309 1.32425 13.1084 1.4426 13.2613 1.59546C13.4166 1.74832 13.5374 1.92338 13.6262 2.12308C13.7149 2.32033 13.7642 2.52743 13.7741 2.7444C13.7815 2.98848 13.7741 3.22271 13.7741 3.452Z" fill="#DE5200"/>
</svg>
