<svg width="201" height="32" viewBox="0 0 201 32" fill="none" xmlns="http://www.w3.org/2000/svg">
<path d="M40.3272 8.00781V11.8738H35.0756V27.8109H30.2629V11.8738H25.0261V8.00781H40.3272Z" fill="white"/>
<path d="M42.7388 8.00781H47.5515V27.8109H42.7388V8.00781Z" fill="white"/>
<path d="M63.9184 8.00781V11.8738H55.8759V16.0504H61.9016V19.8004H55.8759V27.8109H51.0459V8.00781H63.9184Z" fill="white"/>
<path d="M79.323 8.00781V11.8738H71.2681V16.0504H77.2938V19.8004H71.2681V27.8109H66.4504V8.00781H79.323Z" fill="white"/>
<path d="M81.8684 8.00781H86.6737V27.8109H81.8684V8.00781Z" fill="white"/>
<path d="M107.855 27.8109H103.035L94.9829 15.609V27.8233H90.1628V8.00781H94.9829L103.035 20.2812V8.00781H107.855V27.8109Z" fill="white"/>
<path d="M114.61 27.3107C113.498 26.8743 112.583 26.179 111.863 25.2224C111.144 24.2312 110.779 23.1217 110.774 21.8939H115.897C115.929 22.5547 116.183 23.1143 116.659 23.5729C117.15 23.9896 117.717 24.1819 118.358 24.1499C118.984 24.1893 119.551 24.0266 120.059 23.6642C120.266 23.499 120.424 23.2943 120.532 23.0552C120.643 22.8136 120.69 22.5596 120.678 22.2958C120.695 21.8175 120.532 21.4131 120.192 21.0778C119.834 20.7425 119.43 20.4787 118.979 20.2913C118.311 20.0176 117.63 19.781 116.938 19.5862C115.865 19.2681 114.825 18.8736 113.811 18.4003C112.975 17.986 112.28 17.4042 111.728 16.6497C111.144 15.878 110.853 14.8721 110.853 13.6344C110.853 11.7902 111.518 10.3454 112.852 9.30245C114.184 8.25953 115.922 7.73684 118.062 7.73438C120.241 7.73438 121.999 8.25707 123.331 9.30245C124.664 10.3478 125.372 11.8025 125.453 13.6664H120.246C120.234 13.0599 120 12.557 119.541 12.16C119.058 11.7655 118.503 11.5831 117.879 11.6102C117.352 11.5831 116.881 11.7384 116.472 12.0737C116.079 12.4361 115.902 12.8824 115.936 13.415C115.936 13.7281 116.018 14.0165 116.181 14.2853C116.346 14.5516 116.565 14.7562 116.846 14.8967C117.744 15.38 118.683 15.7671 119.659 16.0555C120.725 16.4007 121.763 16.8149 122.773 17.2957C123.594 17.7099 124.28 18.2868 124.835 19.0216C125.414 19.7711 125.705 20.74 125.707 21.926C125.72 23.0354 125.431 24.0611 124.847 25.0005C124.226 25.9719 123.395 26.7017 122.354 27.1923C121.134 27.7767 119.849 28.0528 118.498 28.0232C117.154 28.0429 115.86 27.8038 114.61 27.3107Z" fill="white"/>
<path d="M142.883 8.00781V11.8738H137.647V27.8109H132.829V11.8738H127.592V8.00781H142.883Z" fill="white"/>
<path d="M157.613 24.3148H150.233L149.05 27.8109H144.01L151.165 8.00781H156.752L163.905 27.8109H158.804L157.613 24.3148ZM156.375 20.5894L153.924 13.3408L151.496 20.5894H156.375Z" fill="white"/>
<path d="M169.331 27.3103C168.219 26.8739 167.304 26.1786 166.587 25.222C165.867 24.2283 165.507 23.1189 165.499 21.8935H170.628C170.657 22.5543 170.911 23.1139 171.389 23.5725C171.88 23.9892 172.447 24.1815 173.088 24.1495C173.712 24.1889 174.279 24.0262 174.789 23.6637C174.994 23.4936 175.147 23.289 175.253 23.0474C175.359 22.8057 175.403 22.5518 175.386 22.288C175.403 21.8121 175.241 21.4053 174.9 21.0725C174.545 20.7322 174.138 20.4709 173.687 20.2835C173.019 20.0098 172.336 19.7756 171.643 19.5784C170.571 19.2603 169.53 18.8658 168.517 18.3924C167.681 17.9782 166.986 17.3939 166.434 16.6419C165.849 15.8702 165.558 14.8643 165.561 13.6266C165.561 11.7824 166.227 10.3376 167.56 9.29464C168.892 8.25172 170.63 7.72903 172.77 7.72656C174.947 7.72656 176.703 8.24925 178.036 9.29464C179.37 10.34 180.083 11.7972 180.174 13.666H174.964C174.952 13.0595 174.718 12.5565 174.259 12.1596C173.774 11.7651 173.221 11.5826 172.598 11.6098C172.07 11.5826 171.599 11.738 171.19 12.0733C170.798 12.4357 170.62 12.882 170.655 13.4145C170.652 13.7277 170.731 14.0211 170.894 14.2898C171.054 14.5585 171.276 14.7656 171.555 14.9086C172.455 15.3919 173.394 15.779 174.373 16.065C175.438 16.4151 176.473 16.8268 177.484 17.3076C178.308 17.7169 178.998 18.2889 179.555 19.0212C180.135 19.7707 180.426 20.7396 180.426 21.9255C180.438 23.0326 180.152 24.0582 179.57 25.0001C178.949 25.969 178.118 26.6988 177.077 27.1919C175.857 27.7762 174.57 28.0524 173.216 28.0228C171.875 28.0425 170.578 27.8034 169.331 27.3103Z" fill="white"/>
<path d="M200.507 8.00781V27.8109H195.692V19.6599H188.199V27.8109H183.384V8.00781H188.199V15.7668H195.692V8.00781H200.507Z" fill="white"/>
<path d="M10.1225 22.2584H0.492187C-0.0551611 22.2584 0.00647738 22.3151 0.00647738 21.7727V14.0877C0.00647738 14.0014 0.00647738 13.9126 0.00647738 13.8263C0.00647738 13.6217 0.0262013 13.5822 0.248099 13.5822H19.6543C20.32 13.5822 20.2238 13.491 20.2263 14.169C20.2263 16.6814 20.2263 19.1962 20.2263 21.7111C20.2263 21.827 20.2263 21.9552 20.2263 22.0612C20.2263 22.2387 20.2016 22.256 20.0167 22.2609C19.9008 22.2609 19.7751 22.2609 19.6641 22.2609L10.1225 22.2584Z" fill="white"/>
<path d="M10.1231 23.3209H19.7535C20.2737 23.3209 20.2269 23.2765 20.2269 23.7869C20.2269 25.3796 20.2269 26.9748 20.2269 28.5651C20.2244 28.9325 20.1677 29.2924 20.0518 29.6425C19.9359 29.9926 19.7708 30.3156 19.5513 30.6115C19.3319 30.9074 19.073 31.1613 18.7747 31.3758C18.4739 31.5878 18.1484 31.7481 17.7983 31.8566C17.5173 31.9503 17.2313 31.9971 16.9379 32.0021H3.63634C3.29856 32.0119 2.96571 31.9799 2.6378 31.9108C2.26797 31.8245 1.9228 31.6815 1.59981 31.4794C1.27929 31.2772 0.998223 31.0282 0.761532 30.7323C0.522375 30.4364 0.337461 30.1085 0.209253 29.751C0.0810459 29.3935 0.0120115 29.0262 0.00708008 28.6465C0.00708008 26.9822 0.00708008 25.3155 0.00708008 23.6414V23.5527C0.00708008 23.3382 0.0292698 23.3086 0.226512 23.3086H10.1231V23.3209Z" fill="white"/>
<path d="M20.2239 7.09698C20.2165 6.73702 20.1549 6.38445 20.0365 6.0442C19.9157 5.70396 19.7481 5.3933 19.5262 5.1073C19.3067 4.8213 19.0454 4.57968 18.7471 4.3775C18.4487 4.1778 18.1257 4.02987 17.7781 3.93371C17.465 3.85481 17.1469 3.81536 16.8239 3.8203C16.3728 3.8203 15.9216 3.8203 15.4704 3.8203C14.7924 3.8203 14.886 3.90166 14.8762 3.25076C14.8762 3.08803 14.8762 2.92777 14.8762 2.76258C14.8713 2.57767 14.8466 2.39522 14.8047 2.21524C14.7628 2.03525 14.7036 1.8602 14.6272 1.69254C14.5507 1.52242 14.4595 1.36216 14.3535 1.21177C14.245 1.06137 14.1242 0.920834 13.9911 0.795092C13.8579 0.666884 13.7125 0.55347 13.5571 0.454849C13.4018 0.353762 13.2366 0.269934 13.064 0.203365C12.8914 0.136795 12.7164 0.0850194 12.5339 0.0529677C12.3515 0.01845 12.169 0.00365725 11.9841 0.00612262C10.7464 0.00612262 9.50626 0.00612262 8.26856 0.00612262C8.07625 0.00858799 7.88887 0.0283121 7.70149 0.0628298C7.42782 0.109675 7.16401 0.198434 6.91499 0.324176C6.66597 0.449918 6.44161 0.610177 6.23943 0.802488C6.03726 0.994799 5.86714 1.21423 5.73153 1.45585C5.59346 1.69994 5.49484 1.95636 5.4332 2.23003C5.36664 2.60479 5.34198 2.98448 5.35924 3.36417C5.35924 3.84988 5.39622 3.8203 4.91791 3.82276H3.3449C2.74578 3.81043 2.18857 3.96083 1.67574 4.26902C1.41932 4.41202 1.1851 4.58708 0.975528 4.79171C0.765958 4.99882 0.58844 5.22811 0.442973 5.48453C0.295042 5.73848 0.184092 6.00722 0.110127 6.29322C0.0361606 6.57676 0.00164386 6.86522 0.0065746 7.16109C-0.00821826 8.78094 0.0065746 10.4008 0.0065746 12.0256C0.0065746 12.5335 -0.0378048 12.4965 0.477491 12.4965H19.6815C19.8122 12.4965 19.9453 12.4965 20.076 12.4965C20.1697 12.499 20.2165 12.4546 20.2165 12.3584C20.2165 12.3017 20.2165 12.2425 20.2165 12.1834C20.2264 10.4822 20.2362 8.78587 20.2239 7.09698ZM13.7741 3.45786C13.779 3.50471 13.7642 3.54416 13.7297 3.57867C13.6977 3.61073 13.6582 3.62552 13.6114 3.62059C13.4807 3.62059 13.35 3.62059 13.2169 3.62059H7.05059C6.9495 3.62059 6.84595 3.62059 6.74487 3.62059C6.46873 3.62059 6.4564 3.5984 6.45147 3.3124C6.45147 3.12255 6.45147 2.93271 6.45147 2.74286C6.46133 2.52589 6.51311 2.31879 6.60186 2.12155C6.69062 1.9243 6.81143 1.74925 6.96676 1.59639C7.12209 1.44599 7.29961 1.32765 7.49685 1.24135C7.69656 1.15752 7.90613 1.11068 8.12063 1.10328H12.1074C12.3244 1.11068 12.5315 1.15753 12.7312 1.24382C12.9309 1.33011 13.1084 1.44846 13.2613 1.60132C13.4166 1.75418 13.5374 1.92924 13.6262 2.12894C13.7149 2.32618 13.7642 2.53329 13.7741 2.75026C13.7815 2.99434 13.7741 3.22857 13.7741 3.45786Z" fill="white"/>
</svg>
