<svg width="16" height="17" viewBox="0 0 16 17" fill="none" xmlns="http://www.w3.org/2000/svg">
<path d="M8.00065 15.7073C7.54065 15.7073 7.10732 15.474 6.80065 15.0673L5.80065 13.734C5.78065 13.7073 5.70065 13.674 5.66732 13.6673H5.33398C2.55398 13.6673 0.833984 12.914 0.833984 9.16732V5.83398C0.833984 2.88732 2.38732 1.33398 5.33398 1.33398H10.6673C13.614 1.33398 15.1673 2.88732 15.1673 5.83398V9.16732C15.1673 12.114 13.614 13.6673 10.6673 13.6673H10.334C10.2807 13.6673 10.234 13.694 10.2007 13.734L9.20065 15.0673C8.89398 15.474 8.46065 15.7073 8.00065 15.7073ZM5.33398 2.33398C2.94732 2.33398 1.83398 3.44732 1.83398 5.83398V9.16732C1.83398 12.1807 2.86732 12.6673 5.33398 12.6673H5.66732C6.00732 12.6673 6.39398 12.8607 6.60065 13.134L7.60065 14.4673C7.83398 14.774 8.16732 14.774 8.40065 14.4673L9.40065 13.134C9.62065 12.8407 9.96732 12.6673 10.334 12.6673H10.6673C13.054 12.6673 14.1673 11.554 14.1673 9.16732V5.83398C14.1673 3.44732 13.054 2.33398 10.6673 2.33398H5.33398Z" fill="#6A6C77"/>
<path d="M11.3327 6.33398H4.66602C4.39268 6.33398 4.16602 6.10732 4.16602 5.83398C4.16602 5.56065 4.39268 5.33398 4.66602 5.33398H11.3327C11.606 5.33398 11.8327 5.56065 11.8327 5.83398C11.8327 6.10732 11.606 6.33398 11.3327 6.33398Z" fill="#6A6C77"/>
<path d="M8.66602 9.66602H4.66602C4.39268 9.66602 4.16602 9.43935 4.16602 9.16602C4.16602 8.89268 4.39268 8.66602 4.66602 8.66602H8.66602C8.93935 8.66602 9.16602 8.89268 9.16602 9.16602C9.16602 9.43935 8.93935 9.66602 8.66602 9.66602Z" fill="#6A6C77"/>
</svg>
