<svg width="16" height="17" viewBox="0 0 16 17" fill="none" xmlns="http://www.w3.org/2000/svg">
<path d="M11.4142 4.03683H11.7056C11.9551 4.03683 12.1783 4.14933 12.3272 4.32637H3.63502C3.78395 4.14933 4.00712 4.03683 4.25657 4.03683H4.47893H11.4142ZM12.5175 5.07451V5.32699H8.01816H3.44472V5.07451H12.5175ZM3.44472 6.07513H8.01816H12.5175V7.84707H3.44472V6.07513ZM10.8685 3.28869H5.02459C5.54049 2.2437 6.63991 1.59087 7.94656 1.59087C9.25321 1.59087 10.3526 2.2437 10.8685 3.28869ZM12.5175 8.59522V8.8477H3.44472V8.59522H12.5175ZM3.44472 9.59584H12.5175V11.3678H3.44472V9.59584ZM12.5175 12.1159V12.3684H3.44472V12.1159H12.5175ZM3.44472 13.1165H12.5175V14.892C12.5175 15.1766 12.2867 15.4073 12.0021 15.4073H3.96009C3.67546 15.4073 3.44472 15.1766 3.44472 14.892V13.1165Z" stroke="#545661" stroke-width="0.748142"/>
<rect x="6.66797" y="7.16602" width="9.33333" height="9.33333" rx="4.66667" fill="#7939FF"/>
<path d="M14.1727 12.4542C13.8144 12.6455 13.4052 12.7539 12.9706 12.7539C11.5591 12.7539 10.4149 11.6097 10.4149 10.1982C10.4149 9.76363 10.5233 9.3544 10.7146 8.99609C9.44412 9.29386 8.49805 10.4342 8.49805 11.7955C8.49805 13.3835 9.78533 14.6708 11.3733 14.6708C12.7346 14.6708 13.8749 13.7247 14.1727 12.4542Z" stroke="white" stroke-width="0.466667" stroke-linecap="round" stroke-linejoin="round"/>
<path d="M11.7415 8.28174C11.7601 8.22441 11.8412 8.22441 11.8598 8.28174L11.8915 8.37907C11.8998 8.40471 11.9237 8.42207 11.9506 8.42207H12.053C12.1133 8.42207 12.1383 8.4992 12.0896 8.53463L12.0068 8.59479C11.9849 8.61063 11.9758 8.63872 11.9841 8.66435L12.0158 8.76169C12.0344 8.81902 11.9688 8.86669 11.92 8.83126L11.8372 8.7711C11.8154 8.75525 11.7859 8.75525 11.7641 8.7711L11.6813 8.83126C11.6325 8.86669 11.5669 8.81902 11.5855 8.76169L11.6172 8.66435C11.6255 8.63872 11.6164 8.61063 11.5946 8.59479L11.5118 8.53463C11.463 8.4992 11.488 8.42207 11.5483 8.42207H11.6507C11.6776 8.42207 11.7015 8.40471 11.7098 8.37907L11.7415 8.28174Z" fill="white"/>
<path d="M14.4094 9.34814C14.4281 9.29082 14.5092 9.29082 14.5278 9.34814L14.5594 9.44548C14.5678 9.47112 14.5916 9.48847 14.6186 9.48847H14.7209C14.7812 9.48847 14.8063 9.56561 14.7575 9.60104L14.6747 9.66119C14.6529 9.67704 14.6438 9.70512 14.6521 9.73076L14.6837 9.8281C14.7024 9.88542 14.6368 9.93309 14.588 9.89766L14.5052 9.83751C14.4834 9.82166 14.4539 9.82166 14.432 9.83751L14.3492 9.89766C14.3005 9.93309 14.2349 9.88542 14.2535 9.8281L14.2851 9.73076C14.2935 9.70512 14.2843 9.67704 14.2625 9.66119L14.1797 9.60104C14.131 9.56561 14.156 9.48847 14.2163 9.48847H14.3186C14.3456 9.48847 14.3695 9.47112 14.3778 9.44548L14.4094 9.34814Z" fill="white"/>
<path d="M13.6087 11.0825C13.6273 11.0252 13.7084 11.0252 13.727 11.0825L13.7586 11.1799C13.767 11.2055 13.7909 11.2228 13.8178 11.2228H13.9202C13.9804 11.2228 14.0055 11.3 13.9567 11.3354L13.8739 11.3956C13.8521 11.4114 13.843 11.4395 13.8513 11.4651L13.883 11.5625C13.9016 11.6198 13.836 11.6675 13.7872 11.632L13.7044 11.5719C13.6826 11.556 13.6531 11.556 13.6313 11.5719L13.5485 11.632C13.4997 11.6675 13.4341 11.6198 13.4527 11.5625L13.4843 11.4651C13.4927 11.4395 13.4835 11.4114 13.4617 11.3956L13.3789 11.3354C13.3302 11.3 13.3552 11.2228 13.4155 11.2228H13.5179C13.5448 11.2228 13.5687 11.2055 13.577 11.1799L13.6087 11.0825Z" fill="white"/>
</svg>
