<svg width="29" height="29" viewBox="0 0 29 29" fill="none" xmlns="http://www.w3.org/2000/svg">
<path d="M14.7129 8.0957V12.06" stroke="#3F414A" stroke-width="1.78571" stroke-miterlimit="10" stroke-linecap="round"/>
<path d="M14.739 2.81055C10.358 2.81055 6.81038 6.35817 6.81038 10.7391V13.2391C6.81038 14.0486 6.47705 15.2629 6.06038 15.9534L4.54847 18.4772C3.6199 20.0367 4.26276 21.7748 5.97705 22.3463C11.6675 24.2391 17.8223 24.2391 23.5128 22.3463C25.1199 21.8105 25.8104 19.9296 24.9413 18.4772L23.4294 15.9534C23.0128 15.2629 22.6794 14.0367 22.6794 13.2391V10.7391C22.6675 6.38198 19.0961 2.81055 14.739 2.81055Z" stroke="#3F414A" stroke-width="1.78571" stroke-miterlimit="10" stroke-linecap="round"/>
<path d="M18.6786 22.834C18.6786 25.0126 16.8929 26.7983 14.7143 26.7983C13.631 26.7983 12.631 26.3459 11.9167 25.6316C11.2024 24.9173 10.75 23.9173 10.75 22.834" stroke="#3F414A" stroke-width="1.78571" stroke-miterlimit="10"/>
</svg>
