<svg width="16" height="16" viewBox="0 0 16 16" fill="none" xmlns="http://www.w3.org/2000/svg">
<path d="M7.1 12.74V3.26C7.1 2.36 6.72 2 5.76 2H3.34C2.38 2 2 2.36 2 3.26V12.74C2 13.64 2.38 14 3.34 14H5.76C6.72 14 7.1 13.64 7.1 12.74Z" stroke="#0D0E15" stroke-width="1.25" stroke-linecap="round" stroke-linejoin="round"/>
<path d="M14.0004 12.74V3.26C14.0004 2.36 13.6204 2 12.6604 2H10.2404C9.28706 2 8.90039 2.36 8.90039 3.26V12.74C8.90039 13.64 9.28039 14 10.2404 14H12.6604C13.6204 14 14.0004 13.64 14.0004 12.74Z" stroke="#0D0E15" stroke-width="1.25" stroke-linecap="round" stroke-linejoin="round"/>
</svg>
