<svg width="188" height="52" viewBox="0 0 188 52" fill="none" xmlns="http://www.w3.org/2000/svg">
<rect width="188" height="52" rx="8" fill="#3F414A"/>
<g clip-path="url(#clip0_6629_37583)">
<path d="M34.2748 25.4414L24.0918 35.9696C24.2062 36.3695 24.4116 36.7383 24.6926 37.0479C24.9735 37.3574 25.3224 37.5995 25.7127 37.7555C26.103 37.9116 26.5242 37.9775 26.9442 37.9483C27.3643 37.9191 27.772 37.7955 28.1362 37.5869L39.594 31.1473L34.2748 25.4414Z" fill="#EA4335"/>
<path d="M44.571 23.6512L39.6162 20.8506L34.0391 25.6803L39.6389 31.1316L44.5559 28.361C44.9915 28.1359 45.3564 27.7975 45.6109 27.3823C45.8655 26.9672 46.0001 26.4913 46.0001 26.006C46.0001 25.5208 45.8655 25.0449 45.6109 24.6298C45.3564 24.2146 44.9915 23.8762 44.5559 23.6511L44.571 23.6512Z" fill="#FBBC04"/>
<path d="M24.0911 15.9912C24.0296 16.2158 23.999 16.4475 24 16.6801V35.2803C24.0006 35.5128 24.0312 35.7443 24.0911 35.9692L34.6232 25.7106L24.0911 15.9912Z" fill="#4285F4"/>
<path d="M34.3507 25.9808L39.6168 20.8515L28.1742 14.3819C27.7436 14.1331 27.254 14.0013 26.7551 14C25.517 13.9976 24.4285 14.8085 24.0918 15.9844L34.3507 25.9808Z" fill="#34A853"/>
</g>
<path d="M58.624 16.04C58.48 15.7627 58.28 15.5547 58.024 15.416C57.768 15.272 57.472 15.2 57.136 15.2C56.768 15.2 56.44 15.2827 56.152 15.448C55.864 15.6133 55.6373 15.848 55.472 16.152C55.312 16.456 55.232 16.808 55.232 17.208C55.232 17.608 55.312 17.9627 55.472 18.272C55.6373 18.576 55.864 18.8107 56.152 18.976C56.44 19.1413 56.768 19.224 57.136 19.224C57.632 19.224 58.0347 19.0853 58.344 18.808C58.6533 18.5307 58.8427 18.1547 58.912 17.68H56.824V16.952H59.888V17.664C59.8293 18.096 59.6747 18.4933 59.424 18.856C59.1787 19.2187 58.856 19.5093 58.456 19.728C58.0613 19.9413 57.6213 20.048 57.136 20.048C56.6133 20.048 56.136 19.928 55.704 19.688C55.272 19.4427 54.928 19.104 54.672 18.672C54.4213 18.24 54.296 17.752 54.296 17.208C54.296 16.664 54.4213 16.176 54.672 15.744C54.928 15.312 55.272 14.976 55.704 14.736C56.1413 14.4907 56.6187 14.368 57.136 14.368C57.728 14.368 58.2533 14.5147 58.712 14.808C59.176 15.096 59.512 15.5067 59.72 16.04H58.624ZM61.6995 15.176V16.808H63.6195V17.552H61.6995V19.256H63.8595V20H60.7875V14.432H63.8595V15.176H61.6995ZM68.5748 14.44V15.184H67.0948V20H66.1828V15.184H64.6948V14.44H68.5748ZM72.4886 14.44V20H71.5766V14.44H72.4886ZM77.2779 14.44V15.184H75.7979V20H74.8859V15.184H73.3979V14.44H77.2779ZM82.8157 20.056C82.2984 20.056 81.821 19.936 81.3837 19.696C80.9517 19.4507 80.6077 19.112 80.3517 18.68C80.101 18.2427 79.9757 17.752 79.9757 17.208C79.9757 16.664 80.101 16.176 80.3517 15.744C80.6077 15.312 80.9517 14.976 81.3837 14.736C81.821 14.4907 82.2984 14.368 82.8157 14.368C83.3384 14.368 83.8157 14.4907 84.2477 14.736C84.685 14.976 85.029 15.312 85.2797 15.744C85.5304 16.176 85.6557 16.664 85.6557 17.208C85.6557 17.752 85.5304 18.2427 85.2797 18.68C85.029 19.112 84.685 19.4507 84.2477 19.696C83.8157 19.936 83.3384 20.056 82.8157 20.056ZM82.8157 19.264C83.1837 19.264 83.5117 19.1813 83.7997 19.016C84.0877 18.8453 84.3117 18.6053 84.4717 18.296C84.637 17.9813 84.7197 17.6187 84.7197 17.208C84.7197 16.7973 84.637 16.4373 84.4717 16.128C84.3117 15.8187 84.0877 15.5813 83.7997 15.416C83.5117 15.2507 83.1837 15.168 82.8157 15.168C82.4477 15.168 82.1197 15.2507 81.8317 15.416C81.5437 15.5813 81.317 15.8187 81.1517 16.128C80.9917 16.4373 80.9117 16.7973 80.9117 17.208C80.9117 17.6187 80.9917 17.9813 81.1517 18.296C81.317 18.6053 81.5437 18.8453 81.8317 19.016C82.1197 19.1813 82.4477 19.264 82.8157 19.264ZM91.1211 20H90.2091L87.4651 15.848V20H86.5531V14.432H87.4651L90.2091 18.576V14.432H91.1211V20Z" fill="white"/>
<path d="M64.404 29.09C64.08 28.466 63.63 27.998 63.054 27.686C62.478 27.362 61.812 27.2 61.056 27.2C60.228 27.2 59.49 27.386 58.842 27.758C58.194 28.13 57.684 28.658 57.312 29.342C56.952 30.026 56.772 30.818 56.772 31.718C56.772 32.618 56.952 33.416 57.312 34.112C57.684 34.796 58.194 35.324 58.842 35.696C59.49 36.068 60.228 36.254 61.056 36.254C62.172 36.254 63.078 35.942 63.774 35.318C64.47 34.694 64.896 33.848 65.052 32.78H60.354V31.142H67.248V32.744C67.116 33.716 66.768 34.61 66.204 35.426C65.652 36.242 64.926 36.896 64.026 37.388C63.138 37.868 62.148 38.108 61.056 38.108C59.88 38.108 58.806 37.838 57.834 37.298C56.862 36.746 56.088 35.984 55.512 35.012C54.948 34.04 54.666 32.942 54.666 31.718C54.666 30.494 54.948 29.396 55.512 28.424C56.088 27.452 56.862 26.696 57.834 26.156C58.818 25.604 59.892 25.328 61.056 25.328C62.388 25.328 63.57 25.658 64.602 26.318C65.646 26.966 66.402 27.89 66.87 29.09H64.404ZM73.5739 38.162C72.6379 38.162 71.7919 37.952 71.0359 37.532C70.2799 37.1 69.6859 36.5 69.2539 35.732C68.8219 34.952 68.6059 34.052 68.6059 33.032C68.6059 32.024 68.8279 31.13 69.2719 30.35C69.7159 29.57 70.3219 28.97 71.0899 28.55C71.8579 28.13 72.7159 27.92 73.6639 27.92C74.6119 27.92 75.4699 28.13 76.2379 28.55C77.0059 28.97 77.6119 29.57 78.0559 30.35C78.4999 31.13 78.7219 32.024 78.7219 33.032C78.7219 34.04 78.4939 34.934 78.0379 35.714C77.5819 36.494 76.9579 37.1 76.1659 37.532C75.3859 37.952 74.5219 38.162 73.5739 38.162ZM73.5739 36.38C74.1019 36.38 74.5939 36.254 75.0499 36.002C75.5179 35.75 75.8959 35.372 76.1839 34.868C76.4719 34.364 76.6159 33.752 76.6159 33.032C76.6159 32.312 76.4779 31.706 76.2019 31.214C75.9259 30.71 75.5599 30.332 75.1039 30.08C74.6479 29.828 74.1559 29.702 73.6279 29.702C73.0999 29.702 72.6079 29.828 72.1519 30.08C71.7079 30.332 71.3539 30.71 71.0899 31.214C70.8259 31.706 70.6939 32.312 70.6939 33.032C70.6939 34.1 70.9639 34.928 71.5039 35.516C72.0559 36.092 72.7459 36.38 73.5739 36.38ZM85.0524 38.162C84.1164 38.162 83.2704 37.952 82.5144 37.532C81.7584 37.1 81.1644 36.5 80.7324 35.732C80.3004 34.952 80.0844 34.052 80.0844 33.032C80.0844 32.024 80.3064 31.13 80.7504 30.35C81.1944 29.57 81.8004 28.97 82.5684 28.55C83.3364 28.13 84.1944 27.92 85.1424 27.92C86.0904 27.92 86.9484 28.13 87.7164 28.55C88.4844 28.97 89.0904 29.57 89.5344 30.35C89.9784 31.13 90.2004 32.024 90.2004 33.032C90.2004 34.04 89.9724 34.934 89.5164 35.714C89.0604 36.494 88.4364 37.1 87.6444 37.532C86.8644 37.952 86.0004 38.162 85.0524 38.162ZM85.0524 36.38C85.5804 36.38 86.0724 36.254 86.5284 36.002C86.9964 35.75 87.3744 35.372 87.6624 34.868C87.9504 34.364 88.0944 33.752 88.0944 33.032C88.0944 32.312 87.9564 31.706 87.6804 31.214C87.4044 30.71 87.0384 30.332 86.5824 30.08C86.1264 29.828 85.6344 29.702 85.1064 29.702C84.5784 29.702 84.0864 29.828 83.6304 30.08C83.1864 30.332 82.8324 30.71 82.5684 31.214C82.3044 31.706 82.1724 32.312 82.1724 33.032C82.1724 34.1 82.4424 34.928 82.9824 35.516C83.5344 36.092 84.2244 36.38 85.0524 36.38ZM96.2249 27.92C96.9929 27.92 97.6709 28.076 98.2589 28.388C98.8589 28.688 99.3269 29.066 99.6629 29.522V28.082H101.733V38.162C101.733 39.074 101.541 39.884 101.157 40.592C100.773 41.312 100.215 41.876 99.4829 42.284C98.7629 42.692 97.8989 42.896 96.8909 42.896C95.5469 42.896 94.4309 42.578 93.5429 41.942C92.6549 41.318 92.1509 40.466 92.0309 39.386H94.0649C94.2209 39.902 94.5509 40.316 95.0549 40.628C95.5709 40.952 96.1829 41.114 96.8909 41.114C97.7189 41.114 98.3849 40.862 98.8889 40.358C99.4049 39.854 99.6629 39.122 99.6629 38.162V36.506C99.3149 36.974 98.8409 37.37 98.2409 37.694C97.6529 38.006 96.9809 38.162 96.2249 38.162C95.3609 38.162 94.5689 37.946 93.8489 37.514C93.1409 37.07 92.5769 36.458 92.1569 35.678C91.7489 34.886 91.5449 33.992 91.5449 32.996C91.5449 32 91.7489 31.118 92.1569 30.35C92.5769 29.582 93.1409 28.988 93.8489 28.568C94.5689 28.136 95.3609 27.92 96.2249 27.92ZM99.6629 33.032C99.6629 32.348 99.5189 31.754 99.2309 31.25C98.9549 30.746 98.5889 30.362 98.1329 30.098C97.6769 29.834 97.1849 29.702 96.6569 29.702C96.1289 29.702 95.6369 29.834 95.1809 30.098C94.7249 30.35 94.3529 30.728 94.0649 31.232C93.7889 31.724 93.6509 32.312 93.6509 32.996C93.6509 33.68 93.7889 34.28 94.0649 34.796C94.3529 35.312 94.7249 35.708 95.1809 35.984C95.6489 36.248 96.1409 36.38 96.6569 36.38C97.1849 36.38 97.6769 36.248 98.1329 35.984C98.5889 35.72 98.9549 35.336 99.2309 34.832C99.5189 34.316 99.6629 33.716 99.6629 33.032ZM106.48 24.68V38H104.428V24.68H106.48ZM118.264 32.798C118.264 33.17 118.24 33.506 118.192 33.806H110.614C110.674 34.598 110.968 35.234 111.496 35.714C112.024 36.194 112.672 36.434 113.44 36.434C114.544 36.434 115.324 35.972 115.78 35.048H117.994C117.694 35.96 117.148 36.71 116.356 37.298C115.576 37.874 114.604 38.162 113.44 38.162C112.492 38.162 111.64 37.952 110.884 37.532C110.14 37.1 109.552 36.5 109.12 35.732C108.7 34.952 108.49 34.052 108.49 33.032C108.49 32.012 108.694 31.118 109.102 30.35C109.522 29.57 110.104 28.97 110.848 28.55C111.604 28.13 112.468 27.92 113.44 27.92C114.376 27.92 115.21 28.124 115.942 28.532C116.674 28.94 117.244 29.516 117.652 30.26C118.06 30.992 118.264 31.838 118.264 32.798ZM116.122 32.15C116.11 31.394 115.84 30.788 115.312 30.332C114.784 29.876 114.13 29.648 113.35 29.648C112.642 29.648 112.036 29.876 111.532 30.332C111.028 30.776 110.728 31.382 110.632 32.15H116.122ZM133.707 29.216C133.707 29.852 133.557 30.452 133.257 31.016C132.957 31.58 132.477 32.042 131.817 32.402C131.157 32.75 130.311 32.924 129.279 32.924H127.011V38H124.959V25.49H129.279C130.239 25.49 131.049 25.658 131.709 25.994C132.381 26.318 132.879 26.762 133.203 27.326C133.539 27.89 133.707 28.52 133.707 29.216ZM129.279 31.25C130.059 31.25 130.641 31.076 131.025 30.728C131.409 30.368 131.601 29.864 131.601 29.216C131.601 27.848 130.827 27.164 129.279 27.164H127.011V31.25H129.279ZM137.716 24.68V38H135.664V24.68H137.716ZM139.727 32.996C139.727 32 139.931 31.118 140.339 30.35C140.759 29.582 141.323 28.988 142.031 28.568C142.751 28.136 143.543 27.92 144.407 27.92C145.187 27.92 145.865 28.076 146.441 28.388C147.029 28.688 147.497 29.066 147.845 29.522V28.082H149.915V38H147.845V36.524C147.497 36.992 147.023 37.382 146.423 37.694C145.823 38.006 145.139 38.162 144.371 38.162C143.519 38.162 142.739 37.946 142.031 37.514C141.323 37.07 140.759 36.458 140.339 35.678C139.931 34.886 139.727 33.992 139.727 32.996ZM147.845 33.032C147.845 32.348 147.701 31.754 147.413 31.25C147.137 30.746 146.771 30.362 146.315 30.098C145.859 29.834 145.367 29.702 144.839 29.702C144.311 29.702 143.819 29.834 143.363 30.098C142.907 30.35 142.535 30.728 142.247 31.232C141.971 31.724 141.833 32.312 141.833 32.996C141.833 33.68 141.971 34.28 142.247 34.796C142.535 35.312 142.907 35.708 143.363 35.984C143.831 36.248 144.323 36.38 144.839 36.38C145.367 36.38 145.859 36.248 146.315 35.984C146.771 35.72 147.137 35.336 147.413 34.832C147.701 34.316 147.845 33.716 147.845 33.032ZM161.538 28.082L155.454 42.662H153.33L155.346 37.838L151.44 28.082H153.726L156.516 35.642L159.414 28.082H161.538Z" fill="white"/>
<defs>
<clipPath id="clip0_6629_37583">
<rect width="22" height="24" fill="white" transform="translate(24 14)"/>
</clipPath>
</defs>
</svg>
