<svg width="20" height="21" viewBox="0 0 20 21" fill="none" xmlns="http://www.w3.org/2000/svg">
<path d="M18.3281 5.5V7.51666C18.3281 8.83333 17.4948 9.66666 16.1781 9.66666H13.3281V3.84166C13.3281 2.91666 14.0865 2.15833 15.0115 2.16666C15.9198 2.175 16.7531 2.54166 17.3531 3.14166C17.9531 3.75 18.3281 4.58333 18.3281 5.5Z" fill="#0D0E15"/>
<path opacity="0.4" d="M1.67188 6.33332V18C1.67188 18.6917 2.45521 19.0833 3.00521 18.6667L4.43021 17.6C4.76354 17.35 5.23021 17.3833 5.53021 17.6833L6.91354 19.075C7.23854 19.4 7.77188 19.4 8.09688 19.075L9.49688 17.675C9.78854 17.3833 10.2552 17.35 10.5802 17.6L12.0052 18.6667C12.5552 19.075 13.3385 18.6833 13.3385 18V3.83332C13.3385 2.91666 14.0885 2.16666 15.0052 2.16666H5.83854H5.00521C2.50521 2.16666 1.67188 3.65832 1.67188 5.49999V6.33332Z" fill="#0D0E15"/>
<path d="M10 10.7167H7.5C7.15833 10.7167 6.875 11 6.875 11.3417C6.875 11.6833 7.15833 11.9667 7.5 11.9667H10C10.3417 11.9667 10.625 11.6833 10.625 11.3417C10.625 11 10.3417 10.7167 10 10.7167Z" fill="#0D0E15"/>
<path d="M7.5 8.63333H10C10.3417 8.63333 10.625 8.35 10.625 8.00833C10.625 7.66666 10.3417 7.38333 10 7.38333H7.5C7.15833 7.38333 6.875 7.66666 6.875 8.00833C6.875 8.35 7.15833 8.63333 7.5 8.63333Z" fill="#0D0E15"/>
<path d="M4.97396 7.17499C4.50729 7.17499 4.14062 7.54999 4.14062 8.00832C4.14062 8.46665 4.51562 8.84165 4.97396 8.84165C5.43229 8.84165 5.80729 8.46665 5.80729 8.00832C5.80729 7.54999 5.43229 7.17499 4.97396 7.17499Z" fill="#0D0E15"/>
<path d="M4.97396 10.5083C4.50729 10.5083 4.14062 10.8833 4.14062 11.3416C4.14062 11.8 4.51562 12.175 4.97396 12.175C5.43229 12.175 5.80729 11.8 5.80729 11.3416C5.80729 10.8833 5.43229 10.5083 4.97396 10.5083Z" fill="#667085"/>
</svg>
