<svg width="20" height="21" viewBox="0 0 20 21" fill="none" xmlns="http://www.w3.org/2000/svg">
<path d="M18.3083 15.5003V16.3337C18.3083 17.7087 18.3083 18.8337 15.8083 18.8337H4.1416C1.6416 18.8337 1.6416 17.7087 1.6416 16.3337V15.5003C1.6416 15.042 2.0166 14.667 2.47493 14.667H17.4749C17.9333 14.667 18.3083 15.042 18.3083 15.5003Z" fill="#667085"/>
<path opacity="0.4" d="M17.2668 11.3337V14.667H2.7251V11.3337C2.7251 8.13366 4.98343 5.45866 7.99176 4.81699C8.44176 4.71699 8.90843 4.66699 9.39176 4.66699H10.6001C11.0834 4.66699 11.5584 4.71699 12.0084 4.81699C15.0168 5.46699 17.2668 8.13366 17.2668 11.3337Z" fill="#0D0E15"/>
<path d="M12.0837 4.25033C12.0837 4.45033 12.0587 4.63366 12.0087 4.81699C11.5587 4.71699 11.0837 4.66699 10.6003 4.66699H9.39199C8.90866 4.66699 8.44199 4.71699 7.99199 4.81699C7.94199 4.63366 7.91699 4.45033 7.91699 4.25033C7.91699 3.10033 8.85033 2.16699 10.0003 2.16699C11.1503 2.16699 12.0837 3.10033 12.0837 4.25033Z" fill="#0D0E15"/>
<path d="M12.5 10.292H7.5C7.15833 10.292 6.875 10.0087 6.875 9.66699C6.875 9.32533 7.15833 9.04199 7.5 9.04199H12.5C12.8417 9.04199 13.125 9.32533 13.125 9.66699C13.125 10.0087 12.8417 10.292 12.5 10.292Z" fill="#0D0E15"/>
</svg>
