<svg width="20" height="20" viewBox="0 0 20 20" fill="none" xmlns="http://www.w3.org/2000/svg">
<path opacity="0.4" d="M17.8081 9.49115V14.4828C17.8081 16.7828 15.9414 18.6495 13.6414 18.6495H6.35807C4.05807 18.6495 2.19141 16.7828 2.19141 14.4828V9.54948C2.82474 10.2328 3.72474 10.6245 4.69974 10.6245C5.74974 10.6245 6.75807 10.0995 7.39141 9.25781C7.95807 10.0995 8.92474 10.6245 9.99974 10.6245C11.0664 10.6245 12.0164 10.1245 12.5914 9.29115C13.2331 10.1161 14.2247 10.6245 15.2581 10.6245C16.2664 10.6245 17.1831 10.2161 17.8081 9.49115Z" fill="#6A6C77"/>
<path d="M12.4921 1.04102H7.49211L6.87545 7.17435C6.82545 7.74102 6.90878 8.27435 7.11711 8.75768C7.60045 9.89102 8.73378 10.6243 10.0004 10.6243C11.2838 10.6243 12.3921 9.90768 12.8921 8.76602C13.0421 8.40768 13.1338 7.99102 13.1421 7.56602V7.40768L12.4921 1.04102Z" fill="#0D0E15"/>
<path opacity="0.6" d="M18.6328 6.89102L18.3911 4.58268C18.0411 2.06602 16.8995 1.04102 14.4578 1.04102H11.2578L11.8745 7.29102C11.8828 7.37435 11.8911 7.46602 11.8911 7.62435C11.9411 8.05768 12.0745 8.45768 12.2745 8.81602C12.8745 9.91602 14.0411 10.6243 15.2578 10.6243C16.3661 10.6243 17.3661 10.1327 17.9911 9.26602C18.4911 8.59935 18.7161 7.75768 18.6328 6.89102Z" fill="#6A6C77"/>
<path opacity="0.6" d="M5.49138 1.04102C3.04138 1.04102 1.90804 2.06602 1.54971 4.60768L1.32471 6.89935C1.24137 7.79102 1.48304 8.65768 2.00804 9.33268C2.64138 10.1577 3.61637 10.6243 4.69971 10.6243C5.91638 10.6243 7.08304 9.91602 7.67471 8.83268C7.89138 8.45768 8.03304 8.02435 8.07471 7.57435L8.72471 1.04935H5.49138V1.04102Z" fill="#6A6C77"/>
<path d="M9.45794 13.8829C8.39961 13.9912 7.59961 14.8912 7.59961 15.9579V18.6496H12.3913V16.2496C12.3996 14.5079 11.3746 13.6829 9.45794 13.8829Z" fill="#0D0E15"/>
</svg>
