<svg width="18" height="17" viewBox="0 0 18 17" fill="none" xmlns="http://www.w3.org/2000/svg">
<path d="M7.5799 1.37062C8.02689 -0.00506353 9.97311 -0.0050652 10.4201 1.37062L11.3589 4.26003C11.5588 4.87526 12.1321 5.2918 12.779 5.2918H15.8171C17.2636 5.2918 17.865 7.14277 16.6948 7.99299L14.2369 9.77874C13.7136 10.159 13.4946 10.8329 13.6945 11.4482L14.6333 14.3376C15.0803 15.7133 13.5058 16.8572 12.3356 16.007L9.87767 14.2213C9.35433 13.841 8.64567 13.841 8.12233 14.2213L5.66445 16.007C4.49422 16.8572 2.91969 15.7133 3.36668 14.3376L4.3055 11.4482C4.5054 10.8329 4.28642 10.159 3.76307 9.77874L1.30519 7.99299C0.134967 7.14277 0.736384 5.2918 2.18286 5.2918H5.22097C5.86786 5.2918 6.44117 4.87526 6.64107 4.26003L7.5799 1.37062Z" fill="#F4B000"/>
</svg>
