<svg width="16" height="16" viewBox="0 0 16 16" fill="none" xmlns="http://www.w3.org/2000/svg">
<path d="M14.6693 7.99984V11.3332C14.6693 13.3332 13.3359 14.6665 11.3359 14.6665H4.66927C2.66927 14.6665 1.33594 13.3332 1.33594 11.3332V7.99984C1.33594 6.1865 2.42927 4.91984 4.12927 4.7065C4.3026 4.67984 4.4826 4.6665 4.66927 4.6665H11.3359C11.5093 4.6665 11.6759 4.67316 11.8359 4.69983C13.5559 4.89983 14.6693 6.17317 14.6693 7.99984Z" stroke="#667085" stroke-linecap="round" stroke-linejoin="round"/>
<path d="M11.8317 4.70016C11.6717 4.6735 11.505 4.66684 11.3317 4.66684H4.665C4.47833 4.66684 4.29833 4.68017 4.125 4.70683C4.21833 4.52017 4.35167 4.34684 4.51167 4.18684L6.67833 2.0135C7.59167 1.10683 9.07167 1.10683 9.985 2.0135L11.1517 3.19351C11.5783 3.61351 11.805 4.14683 11.8317 4.70016Z" stroke="#667085" stroke-linecap="round" stroke-linejoin="round"/>
<path d="M14.6693 8.3335H12.6693C11.9359 8.3335 11.3359 8.9335 11.3359 9.66683C11.3359 10.4002 11.9359 11.0002 12.6693 11.0002H14.6693" stroke="#667085" stroke-linecap="round" stroke-linejoin="round"/>
</svg>
