<svg width="20" height="21" viewBox="0 0 20 21" fill="none" xmlns="http://www.w3.org/2000/svg">
<path opacity="0.4" d="M5.04427 6.9237L5.16094 6.85703L6.31927 6.19036L8.71094 4.80703C9.44427 4.38203 10.5609 4.38203 11.2943 4.80703L13.6859 6.19036L14.8443 6.86536L14.9943 6.9487C16.4859 7.9487 16.5859 8.13203 16.5859 9.74036L16.5859 13.582C16.5859 15.1904 16.4859 15.3737 14.9609 16.3987L11.2943 18.5154C10.9276 18.732 10.4693 18.832 10.0026 18.832C9.54427 18.832 9.0776 18.732 8.71094 18.5154L5.01094 16.3737C3.51927 15.3737 3.41927 15.1904 3.41927 13.582L3.41927 9.74036C3.41927 8.13203 3.51927 7.9487 5.04427 6.9237Z" fill="#667085"/>
<path d="M14.8437 6.86601L13.6854 6.19101L11.4021 4.87435L11.2938 4.80768C10.5604 4.38268 9.44375 4.38268 8.71042 4.80768L8.60208 4.87435L6.31875 6.19101L5.16042 6.85768L5.16042 5.07435C5.16042 3.19935 6.19375 2.16601 8.06875 2.16602L11.9438 2.16602C13.8188 2.16602 14.8437 3.19935 14.8437 5.07435L14.8437 6.86601Z" fill="#667085"/>
<path d="M7.63029 11.6164L8.14696 12.2497C8.23029 12.3414 8.28862 12.5247 8.28029 12.6497L8.23029 13.4664C8.19696 13.9664 8.55529 14.2247 9.02196 14.0414L9.78029 13.7414C9.89696 13.6997 10.097 13.6997 10.2136 13.7414L10.972 14.0414C11.4386 14.2247 11.797 13.9664 11.7636 13.4664L11.7136 12.6497C11.7053 12.5247 11.7636 12.3414 11.847 12.2497L12.3636 11.6164C12.6886 11.2331 12.547 10.8081 12.0636 10.6831L11.272 10.4831C11.147 10.4497 10.997 10.3331 10.9303 10.2247L10.4886 9.54141C10.2136 9.11641 9.78029 9.11641 9.50529 9.54141L9.06362 10.2247C8.99696 10.3331 8.84696 10.4497 8.72196 10.4831L7.93029 10.6831C7.44696 10.8081 7.30529 11.2331 7.63029 11.6164Z" fill="#667085"/>
</svg>
