<svg width="20" height="20" viewBox="0 0 20 20" fill="none" xmlns="http://www.w3.org/2000/svg">
<path d="M2.51101 4.1582C2.41113 5.04154 2.96052 7.0182 5.4078 7.0182" stroke="#3F414A" stroke-width="1.25" stroke-linecap="round"/>
<path d="M14.6641 6.98492C15.6979 7.14992 17.5958 6.24992 17.4979 4.16992" stroke="#3F414A" stroke-width="1.25" stroke-linecap="round"/>
<path d="M17.5001 17.4995C17.55 16.6195 16.8209 14.6295 14.6719 14.5195" stroke="#3F414A" stroke-width="1.25" stroke-linecap="round"/>
<path d="M5.3811 14.5599C4.71319 14.3599 2.51562 15.2799 2.51562 17.4999" stroke="#3F414A" stroke-width="1.25" stroke-linecap="round"/>
<path d="M7.7764 5.09805C7.79638 4.24805 8.20592 2.49805 10.004 2.49805C11.6021 2.49805 12.1565 3.84805 12.2315 5.09805M5.21924 7.84805C5.31913 7.19805 6.07829 5.67805 7.80637 5.52805C9.55447 5.46205 11.9518 5.48805 12.4013 5.55805C12.9905 5.61049 14.414 6.19805 14.7936 7.84805C14.9285 8.69803 14.8585 9.89803 14.8785 10.598C14.8485 11.298 14.9354 12.7175 14.7986 13.448C14.6987 14.248 14.1593 15.388 13.4201 16.088C12.3214 17.268 9.30472 18.508 6.6976 16.208C5.3491 14.908 5.2592 13.648 5.15931 13.148C5.13253 12.8799 5.13377 11.5626 5.13933 10.298C5.11935 9.20403 5.14511 8.14955 5.21924 7.84805Z" fill="#AFAFB3"/>
<path d="M2.51562 10.748H4.96291" stroke="#3F414A" stroke-width="1.25" stroke-linecap="round"/>
<path d="M17.4911 10.748H15.0938" stroke="#3F414A" stroke-width="1.25" stroke-linecap="round"/>
<path d="M10 13.748V16.898" stroke="#3F414A" stroke-width="1.25" stroke-linecap="round"/>
</svg>
