<svg width="16" height="16" viewBox="0 0 16 16" fill="none" xmlns="http://www.w3.org/2000/svg">
<path d="M5.3335 1.33325V3.33325" stroke="#667085" stroke-miterlimit="10" stroke-linecap="round" stroke-linejoin="round"/>
<path d="M10.6665 1.33325V3.33325" stroke="#667085" stroke-miterlimit="10" stroke-linecap="round" stroke-linejoin="round"/>
<path d="M2.3335 6.06006H13.6668" stroke="#667085" stroke-miterlimit="10" stroke-linecap="round" stroke-linejoin="round"/>
<path d="M12.8065 10.5134L10.4465 12.8734C10.3532 12.9667 10.2665 13.14 10.2465 13.2667L10.1199 14.1667C10.0732 14.4934 10.2999 14.72 10.6265 14.6734L11.5265 14.5467C11.6532 14.5267 11.8332 14.44 11.9199 14.3467L14.2799 11.9867C14.6865 11.58 14.8799 11.1067 14.2799 10.5067C13.6865 9.91337 13.2132 10.1067 12.8065 10.5134Z" stroke="#667085" stroke-miterlimit="10" stroke-linecap="round" stroke-linejoin="round"/>
<path d="M12.4663 10.8533C12.6663 11.5733 13.2263 12.1333 13.9463 12.3333" stroke="#667085" stroke-miterlimit="10" stroke-linecap="round" stroke-linejoin="round"/>
<path d="M8 14.6666H5.33333C3 14.6666 2 13.3333 2 11.3333V5.66659C2 3.66659 3 2.33325 5.33333 2.33325H10.6667C13 2.33325 14 3.66659 14 5.66659V7.99992" stroke="#667085" stroke-miterlimit="10" stroke-linecap="round" stroke-linejoin="round"/>
<path d="M7.99715 9.13338H8.00314" stroke="#667085" stroke-linecap="round" stroke-linejoin="round"/>
<path d="M5.52938 9.13338H5.53537" stroke="#667085" stroke-linecap="round" stroke-linejoin="round"/>
<path d="M5.52938 11.1334H5.53537" stroke="#667085" stroke-linecap="round" stroke-linejoin="round"/>
</svg>
