<svg width="16" height="17" viewBox="0 0 16 17" fill="none" xmlns="http://www.w3.org/2000/svg">
<path opacity="0.4" d="M10.3359 9.26602H8.88927C7.7026 9.26602 6.73594 8.30602 6.73594 7.11268V5.66602C6.73594 5.39268 6.51594 5.16602 6.23594 5.16602H4.1226C2.5826 5.16602 1.33594 6.16602 1.33594 7.95268V12.3793C1.33594 14.166 2.5826 15.166 4.1226 15.166H8.04927C9.58927 15.166 10.8359 14.166 10.8359 12.3793V9.76602C10.8359 9.48602 10.6093 9.26602 10.3359 9.26602Z" fill="#0D0E15"/>
<path d="M11.8785 1.83398H10.5652H9.83854H7.95188C6.44521 1.83398 5.22521 2.79398 5.17188 4.50732C5.21187 4.50732 5.24521 4.50065 5.28521 4.50065H7.17188H7.89854H9.21187C10.7519 4.50065 11.9985 5.50065 11.9985 7.28732V8.60065V10.4073V11.7207C11.9985 11.7607 11.9919 11.794 11.9919 11.8273C13.4785 11.7807 14.6652 10.794 14.6652 9.05398V7.74065V5.93398V4.62065C14.6652 2.83398 13.4185 1.83398 11.8785 1.83398Z" fill="#0D0E15"/>
<path d="M7.98969 5.2665C7.78302 5.05983 7.42969 5.19983 7.42969 5.4865V7.23317C7.42969 7.9665 8.04969 8.5665 8.80969 8.5665C9.28302 8.57317 9.94302 8.57317 10.5097 8.57317C10.7964 8.57317 10.943 8.23983 10.743 8.03983C10.0164 7.31317 8.72302 6.01317 7.98969 5.2665Z" fill="#0D0E15"/>
</svg>
