<svg width="20" height="21" viewBox="0 0 20 21" fill="none" xmlns="http://www.w3.org/2000/svg">
<path opacity="0.4" d="M6.02187 16.3159L13.9719 16.3159C14.3219 16.3159 14.6385 16.0909 14.7552 15.7659L18.2219 6.05755C18.4969 5.28255 17.6135 4.62422 16.9552 5.09922L13.6219 7.48255C13.1802 7.79922 12.5469 7.60755 12.3552 7.09922L10.7802 2.89922C10.5135 2.17422 9.48854 2.17422 9.22187 2.89922L7.64687 7.09922C7.4552 7.61588 6.8302 7.79922 6.3802 7.48255L3.04687 5.09922C2.38021 4.62422 1.50521 5.29088 1.78021 6.05755L5.24687 15.7659C5.3552 16.0909 5.67187 16.3159 6.02187 16.3159Z" fill="#667085"/>
<path d="M5.83073 18.834L14.1641 18.834C14.5057 18.834 14.7891 18.5507 14.7891 18.209C14.7891 17.8673 14.5057 17.584 14.1641 17.584L5.83073 17.584C5.48906 17.584 5.20573 17.8673 5.20573 18.209C5.20573 18.5507 5.48906 18.834 5.83073 18.834Z" fill="#667085"/>
<path d="M7.91927 12.791L12.0859 12.791C12.4276 12.791 12.7109 12.5077 12.7109 12.166C12.7109 11.8243 12.4276 11.541 12.0859 11.541L7.91927 11.541C7.57761 11.541 7.29427 11.8243 7.29427 12.166C7.29427 12.5077 7.57761 12.791 7.91927 12.791Z" fill="#667085"/>
</svg>
