<svg width="72" height="72" viewBox="0 0 72 72" fill="none" xmlns="http://www.w3.org/2000/svg">
<g filter="url(#filter0_d_5602_38179)">
<rect x="16" y="16" width="40" height="40" rx="20" fill="white"/>
<path opacity="0.4" d="M43.5 44.3333H28.5C28.1583 44.3333 27.875 44.05 27.875 43.7083C27.875 43.3667 28.1583 43.0833 28.5 43.0833H43.5C43.8417 43.0833 44.125 43.3667 44.125 43.7083C44.125 44.05 43.8417 44.3333 43.5 44.3333Z" fill="#3F414A"/>
<path opacity="0.4" d="M41.85 28.9C40.2333 27.2833 38.65 27.2417 36.9916 28.9L35.9833 29.9083C35.9 29.9917 35.8666 30.125 35.9 30.2417C36.5333 32.45 38.3 34.2167 40.5083 34.85C40.5416 34.8583 40.575 34.8667 40.6083 34.8667C40.7 34.8667 40.7833 34.8333 40.85 34.7667L41.85 33.7583C42.675 32.9417 43.075 32.15 43.075 31.35C43.0833 30.525 42.6833 29.725 41.85 28.9Z" fill="#3F414A"/>
<path d="M39.0084 35.6083C38.7668 35.4917 38.5334 35.375 38.3084 35.2417C38.1251 35.1333 37.9501 35.0167 37.7751 34.8917C37.6334 34.8 37.4668 34.6667 37.3084 34.5333C37.2918 34.525 37.2334 34.475 37.1668 34.4083C36.8918 34.175 36.5834 33.875 36.3084 33.5417C36.2834 33.525 36.2418 33.4667 36.1834 33.3917C36.1001 33.2917 35.9584 33.125 35.8334 32.9333C35.7334 32.8083 35.6168 32.625 35.5084 32.4417C35.3751 32.2167 35.2584 31.9917 35.1418 31.7583C35.0251 31.5083 34.9334 31.2667 34.8501 31.0417L29.6168 36.275C29.5084 36.3833 29.4084 36.5917 29.3834 36.7333L28.9334 39.925C28.8501 40.4917 29.0084 41.025 29.3584 41.3833C29.6584 41.675 30.0751 41.8333 30.5251 41.8333C30.6251 41.8333 30.7251 41.825 30.8251 41.8083L34.0251 41.3583C34.1751 41.3333 34.3834 41.2333 34.4834 41.125L39.7168 35.8917C39.4834 35.8083 39.2584 35.7167 39.0084 35.6083Z" fill="#3F414A"/>
</g>
<defs>
<filter id="filter0_d_5602_38179" x="0" y="0" width="72" height="72" filterUnits="userSpaceOnUse" color-interpolation-filters="sRGB">
<feFlood flood-opacity="0" result="BackgroundImageFix"/>
<feColorMatrix in="SourceAlpha" type="matrix" values="0 0 0 0 0 0 0 0 0 0 0 0 0 0 0 0 0 0 127 0" result="hardAlpha"/>
<feOffset/>
<feGaussianBlur stdDeviation="8"/>
<feComposite in2="hardAlpha" operator="out"/>
<feColorMatrix type="matrix" values="0 0 0 0 0 0 0 0 0 0 0 0 0 0 0 0 0 0 0.15 0"/>
<feBlend mode="normal" in2="BackgroundImageFix" result="effect1_dropShadow_5602_38179"/>
<feBlend mode="normal" in="SourceGraphic" in2="effect1_dropShadow_5602_38179" result="shape"/>
</filter>
</defs>
</svg>
