<svg width="20" height="20" viewBox="0 0 20 20" fill="none" xmlns="http://www.w3.org/2000/svg">
<path opacity="0.58" d="M20 0H0V20H20V0Z" fill="white"/>
<path opacity="0.4" d="M13.4885 1.66602H6.51354C3.48021 1.66602 1.67188 3.47435 1.67188 6.50768V13.4827C1.67188 16.516 3.48021 18.3243 6.51354 18.3243H13.4885C16.5219 18.3243 18.3302 16.516 18.3302 13.4827V6.50768C18.3302 3.47435 16.5219 1.66602 13.4885 1.66602Z" fill="#3F414A"/>
<path d="M11.601 7.73203L11.6427 10.1904L13.8344 10.157C13.9927 10.157 14.1094 10.2987 14.0844 10.4487L13.7927 12.0404C13.7677 12.157 13.6677 12.2404 13.551 12.2487L11.676 12.282L11.776 18.3237L9.27604 18.3654L9.17604 12.3237L7.75936 12.3487C7.6177 12.3487 7.50937 12.2404 7.50937 12.0987L7.48438 10.5154C7.48438 10.3737 7.5927 10.2654 7.73436 10.2654L9.15104 10.2404L9.10936 7.53203C9.08436 6.1487 10.1844 5.01537 11.5677 4.99037L13.8177 4.95703C13.9594 4.95703 14.0677 5.06537 14.0677 5.20703L14.101 7.20704C14.101 7.3487 13.9927 7.45703 13.851 7.45703L11.851 7.49037C11.7094 7.48203 11.601 7.5987 11.601 7.73203Z" fill="#3F414A"/>
</svg>
