<svg width="16" height="17" viewBox="0 0 16 17" fill="none" xmlns="http://www.w3.org/2000/svg">
<path d="M7.99479 15.1654C11.6767 15.1654 14.6615 12.1806 14.6615 8.4987C14.6615 4.8168 11.6767 1.83203 7.99479 1.83203C4.31289 1.83203 1.32812 4.8168 1.32812 8.4987C1.32812 12.1806 4.31289 15.1654 7.99479 15.1654Z" stroke="#667085" stroke-linecap="round" stroke-linejoin="round"/>
<path d="M5.33177 2.5H5.99844C4.69844 6.39333 4.69844 10.6067 5.99844 14.5H5.33177" stroke="#667085" stroke-linecap="round" stroke-linejoin="round"/>
<path d="M10 2.5C11.3 6.39333 11.3 10.6067 10 14.5" stroke="#667085" stroke-linecap="round" stroke-linejoin="round"/>
<path d="M2 11.1667V10.5C5.89333 11.8 10.1067 11.8 14 10.5V11.1667" stroke="#667085" stroke-linecap="round" stroke-linejoin="round"/>
<path d="M2 6.50039C5.89333 5.20039 10.1067 5.20039 14 6.50039" stroke="#667085" stroke-linecap="round" stroke-linejoin="round"/>
</svg>
