<svg xmlns="http://www.w3.org/2000/svg" width="29.612" height="31.419" viewBox="0 0 29.612 31.419">
  <g id="Group_544" data-name="Group 544" transform="translate(-1006.194 -179.27)">
    <path id="Path_2956" data-name="Path 2956" d="M36.024,14.543a.39.39,0,0,0-.51.59A14.046,14.046,0,1,1,25.8,11.58v1.56a.383.383,0,0,0,.218.345.36.36,0,0,0,.165.038.41.41,0,0,0,.241-.084l2.02-1.617.2-.165a.381.381,0,0,0,.015-.586L26.439,9.1a.383.383,0,0,0-.636.287v1.43a14.8,14.8,0,1,0,10.221,3.729Z" transform="translate(994.806 170.269)" fill="#ea5455"/>
    <path id="Path_2957" data-name="Path 2957" d="M34.56,26.968v1.624a.338.338,0,0,0,.338.338h.6v2.194a2.789,2.789,0,0,0,.972,2.117l1.519,1.307a.766.766,0,0,1,.263.574v.388a.766.766,0,0,1-.263.574l-1.519,1.307a2.789,2.789,0,0,0-.972,2.117V41.7h-.6a.338.338,0,0,0-.338.338v1.627A.338.338,0,0,0,34.9,44h9.75a.338.338,0,0,0,.338-.338V42.035a.338.338,0,0,0-.338-.338h-.6V39.506a2.789,2.789,0,0,0-.972-2.117l-1.519-1.307a.766.766,0,0,1-.263-.574v-.388a.766.766,0,0,1,.263-.574l1.519-1.307a2.789,2.789,0,0,0,.972-2.117V28.929h.6a.338.338,0,0,0,.338-.338V26.968a.338.338,0,0,0-.338-.338H34.9A.338.338,0,0,0,34.56,26.968Zm9.75,15.4v.952H35.235v-.952Zm-.939-11.249a2.107,2.107,0,0,1-.736,1.6l-1.512,1.31a1.421,1.421,0,0,0-.5,1.084v.388a1.425,1.425,0,0,0,.5,1.084l1.512,1.3a2.107,2.107,0,0,1,.736,1.6v2.191h-7.2V39.506a2.107,2.107,0,0,1,.736-1.61l1.512-1.3a1.425,1.425,0,0,0,.5-1.084v-.388a1.421,1.421,0,0,0-.5-1.084L36.9,32.727a2.107,2.107,0,0,1-.736-1.6V28.929h7.2Zm-8.136-3.818H44.31v.949H35.235Z" transform="translate(981.634 159.64)" fill="#ea5455"/>
  </g>
</svg>
