<svg width="183" height="180" viewBox="0 0 183 180" fill="none" xmlns="http://www.w3.org/2000/svg">
<path d="M90.8652 33.7529L153.879 70.3865V143.148L90.8652 179.529L27.8516 143.148V70.2603L90.8652 33.7529Z" fill="#975A16"/>
<path d="M90.8672 33.7529L153.881 70.3865V143.148L90.8672 179.529V33.7529Z" fill="#6C400F"/>
<path d="M63.7747 0.0898438L0.171875 36.7709L27.7668 70.4232L91.0331 33.7422L63.7747 0.0898438Z" fill="#AC7E4B"/>
<path d="M27.9339 70.2549L27.7656 143.617L91.032 179.961V106.684L27.9339 70.2549Z" fill="#D2924A"/>
<path d="M153.961 70.2969L153.793 143.659L91.0312 179.961V106.683L153.961 70.2969Z" fill="#885925"/>
<path d="M182.229 68.0674L118.626 104.748L91.0312 106.936L154.298 70.2548L182.229 68.0674Z" fill="#AC7E4B"/>
</svg>
