<svg width="20" height="20" viewBox="0 0 20 20" fill="none" xmlns="http://www.w3.org/2000/svg">
<path d="M10.0003 18.0433C9.74199 18.0433 9.49199 18.01 9.28366 17.935C6.10033 16.8433 1.04199 12.9683 1.04199 7.24329C1.04199 4.32663 3.40033 1.95996 6.30033 1.95996C7.70866 1.95996 9.02533 2.50996 10.0003 3.49329C10.9753 2.50996 12.292 1.95996 13.7003 1.95996C16.6003 1.95996 18.9587 4.33496 18.9587 7.24329C18.9587 12.9766 13.9003 16.8433 10.717 17.935C10.5087 18.01 10.2587 18.0433 10.0003 18.0433ZM6.30033 3.20996C4.09199 3.20996 2.29199 5.01829 2.29199 7.24329C2.29199 12.935 7.76699 16.1016 9.69199 16.76C9.84199 16.81 10.167 16.81 10.317 16.76C12.2337 16.1016 17.717 12.9433 17.717 7.24329C17.717 5.01829 15.917 3.20996 13.7087 3.20996C12.442 3.20996 11.267 3.80163 10.5087 4.82663C10.2753 5.14329 9.74199 5.14329 9.50866 4.82663C8.73366 3.79329 7.56699 3.20996 6.30033 3.20996Z" fill="#0D0E15"/>
</svg>
