<svg width="20" height="20" viewBox="0 0 20 20" fill="none" xmlns="http://www.w3.org/2000/svg">
<path opacity="0.4" d="M13.4891 1.66602H6.50573C3.4724 1.66602 1.66406 3.47435 1.66406 6.50768V13.4827C1.66406 16.5244 3.4724 18.3327 6.50573 18.3327H13.4807C16.5141 18.3327 18.3224 16.5244 18.3224 13.491V6.50768C18.3307 3.47435 16.5224 1.66602 13.4891 1.66602Z" fill="#3F414A"/>
<path d="M9.99896 13.2323C11.7847 13.2323 13.2323 11.7847 13.2323 9.99896C13.2323 8.21324 11.7847 6.76562 9.99896 6.76562C8.21324 6.76562 6.76562 8.21324 6.76562 9.99896C6.76562 11.7847 8.21324 13.2323 9.99896 13.2323Z" fill="#3F414A"/>
<path d="M14.1693 6.25139C13.9443 6.25139 13.7359 6.16805 13.5776 6.00972C13.5026 5.92639 13.4443 5.83472 13.4026 5.73472C13.3609 5.63472 13.3359 5.52639 13.3359 5.41805C13.3359 5.30972 13.3609 5.20138 13.4026 5.10138C13.4443 4.99305 13.5026 4.90972 13.5776 4.82638C13.7693 4.63472 14.0609 4.54305 14.3276 4.60138C14.3859 4.60972 14.4359 4.62638 14.4859 4.65138C14.5359 4.66805 14.5859 4.69305 14.6359 4.72639C14.6776 4.75139 14.7193 4.79305 14.7609 4.82638C14.8359 4.90972 14.8943 4.99305 14.9359 5.10138C14.9776 5.20138 15.0026 5.30972 15.0026 5.41805C15.0026 5.52639 14.9776 5.63472 14.9359 5.73472C14.8943 5.83472 14.8359 5.92639 14.7609 6.00972C14.6776 6.08472 14.5859 6.14305 14.4859 6.18472C14.3859 6.22639 14.2776 6.25139 14.1693 6.25139Z" fill="#3F414A"/>
</svg>
