<svg width="16" height="17" viewBox="0 0 16 17" fill="none" xmlns="http://www.w3.org/2000/svg">
<path d="M12.8668 5.77999V9.21334C12.8668 11.2667 11.6935 12.1466 9.93347 12.1466H4.07347C3.77347 12.1466 3.4868 12.12 3.22013 12.06C3.05347 12.0334 2.89347 11.9867 2.74681 11.9333C1.74681 11.56 1.14014 10.6933 1.14014 9.21334V5.77999C1.14014 3.72666 2.31347 2.84668 4.07347 2.84668H9.93347C11.4268 2.84668 12.5001 3.48001 12.7868 4.92668C12.8335 5.19334 12.8668 5.46666 12.8668 5.77999Z" stroke="#667085" stroke-miterlimit="10" stroke-linecap="round" stroke-linejoin="round"/>
<path d="M14.8674 7.78007V11.2134C14.8674 13.2668 13.694 14.1467 11.934 14.1467H6.07404C5.5807 14.1467 5.13404 14.0801 4.74738 13.9334C3.95404 13.6401 3.41404 13.0334 3.2207 12.0601C3.48737 12.1201 3.77404 12.1467 4.07404 12.1467H9.93404C11.694 12.1467 12.8674 11.2668 12.8674 9.21342V5.78007C12.8674 5.46674 12.8407 5.18676 12.7874 4.92676C14.054 5.19342 14.8674 6.08674 14.8674 7.78007Z" stroke="#667085" stroke-miterlimit="10" stroke-linecap="round" stroke-linejoin="round"/>
<path d="M6.99878 9.26001C7.9708 9.26001 8.75879 8.47202 8.75879 7.5C8.75879 6.52798 7.9708 5.73999 6.99878 5.73999C6.02676 5.73999 5.23877 6.52798 5.23877 7.5C5.23877 8.47202 6.02676 9.26001 6.99878 9.26001Z" stroke="#667085" stroke-miterlimit="10" stroke-linecap="round" stroke-linejoin="round"/>
<path d="M3.18652 6.03345V8.9668" stroke="#667085" stroke-miterlimit="10" stroke-linecap="round" stroke-linejoin="round"/>
<path d="M10.8145 6.03345V8.9668" stroke="#667085" stroke-miterlimit="10" stroke-linecap="round" stroke-linejoin="round"/>
</svg>
