<svg width="74" height="74" viewBox="0 0 74 74" fill="none" xmlns="http://www.w3.org/2000/svg">
<g filter="url(#filter0_d_5981_58826)">
<rect x="5" width="64" height="64" rx="32" fill="url(#paint0_linear_5981_58826)" shape-rendering="crispEdges"/>
<rect x="6.14286" y="1.14286" width="61.7143" height="61.7143" rx="30.8571" stroke="#FCFCFD" stroke-width="2.28571" shape-rendering="crispEdges"/>
<path d="M44.6574 28.5496L28.0174 38.5268C27.9146 38.1496 27.8574 37.7496 27.8574 37.3382V26.6639C27.8574 23.1439 31.6631 20.9496 34.7146 22.7096L39.3317 25.3725L43.9603 28.0468C44.2117 28.1953 44.4517 28.3553 44.6574 28.5496Z" fill="#DE5200"/>
<path opacity="0.4" d="M43.9587 35.9553L39.3301 38.6296L34.713 41.2925C32.5301 42.5496 29.9587 41.7953 28.6787 39.9553L29.1587 39.6696L45.6616 29.7725C46.8044 31.8296 46.2444 34.641 43.9587 35.9553Z" fill="#DE5200"/>
</g>
<defs>
<filter id="filter0_d_5981_58826" x="0.428573" y="0" width="73.1429" height="73.1429" filterUnits="userSpaceOnUse" color-interpolation-filters="sRGB">
<feFlood flood-opacity="0" result="BackgroundImageFix"/>
<feColorMatrix in="SourceAlpha" type="matrix" values="0 0 0 0 0 0 0 0 0 0 0 0 0 0 0 0 0 0 127 0" result="hardAlpha"/>
<feOffset dy="4.57143"/>
<feGaussianBlur stdDeviation="2.28571"/>
<feComposite in2="hardAlpha" operator="out"/>
<feColorMatrix type="matrix" values="0 0 0 0 0 0 0 0 0 0 0 0 0 0 0 0 0 0 0.08 0"/>
<feBlend mode="normal" in2="BackgroundImageFix" result="effect1_dropShadow_5981_58826"/>
<feBlend mode="normal" in="SourceGraphic" in2="effect1_dropShadow_5981_58826" result="shape"/>
</filter>
<linearGradient id="paint0_linear_5981_58826" x1="37" y1="0" x2="37" y2="64" gradientUnits="userSpaceOnUse">
<stop stop-color="#DE5200" stop-opacity="0.29"/>
<stop offset="1" stop-color="#EFECFE"/>
</linearGradient>
</defs>
</svg>
