<svg width="20" height="20" viewBox="0 0 20 20" fill="none" xmlns="http://www.w3.org/2000/svg">
<path opacity="0.4" d="M9.9974 1.66602C7.81406 1.66602 6.03906 3.44102 6.03906 5.62435C6.03906 7.76602 7.71406 9.49935 9.8974 9.57435C9.96406 9.56602 10.0307 9.56602 10.0807 9.57435C10.0974 9.57435 10.1057 9.57435 10.1224 9.57435C10.1307 9.57435 10.1307 9.57435 10.1391 9.57435C12.2724 9.49935 13.9474 7.76602 13.9557 5.62435C13.9557 3.44102 12.1807 1.66602 9.9974 1.66602Z" fill="#3F414A"/>
<path d="M14.2328 11.7934C11.9078 10.2434 8.11615 10.2434 5.77448 11.7934C4.71615 12.5017 4.13281 13.46 4.13281 14.485C4.13281 15.51 4.71615 16.46 5.76615 17.16C6.93281 17.9434 8.46615 18.335 9.99948 18.335C11.5328 18.335 13.0661 17.9434 14.2328 17.16C15.2828 16.4517 15.8661 15.5017 15.8661 14.4684C15.8578 13.4434 15.2828 12.4934 14.2328 11.7934Z" fill="#3F414A"/>
</svg>
