<svg width="16" height="16" viewBox="0 0 16 16" fill="none" xmlns="http://www.w3.org/2000/svg">
<path d="M7.88134 0.335925C7.9519 0.283915 8.0481 0.283915 8.11867 0.335925L11.0853 2.52255C11.1212 2.54906 11.16 2.57147 11.201 2.58937L14.578 4.0652C14.6583 4.1003 14.7064 4.18362 14.6966 4.27073L14.2862 7.93319C14.2813 7.97759 14.2813 8.02241 14.2862 8.06681L14.6966 11.7293C14.7064 11.8164 14.6583 11.8997 14.578 11.9348L11.201 13.4106C11.201 13.4106 11.201 13.4106 11.201 13.4106C11.16 13.4285 11.1212 13.4509 11.0853 13.4774L8.11867 15.6641C8.0481 15.7161 7.9519 15.7161 7.88133 15.6641L4.91474 13.4774C4.87878 13.4509 4.83996 13.4285 4.79902 13.4106L1.42205 11.9348C1.34173 11.8997 1.29362 11.8164 1.30338 11.7293L1.71377 8.06681C1.71874 8.02241 1.71874 7.97759 1.71377 7.93319L1.30338 4.27073C1.29362 4.18362 1.34173 4.1003 1.42205 4.0652L4.79902 2.58937L4.71893 2.4061L4.79902 2.58937C4.83996 2.57147 4.87878 2.54907 4.91474 2.52256L7.88134 0.335925Z" fill="#DE5200" stroke="white" stroke-width="0.4"/>
<path opacity="0.4" d="M10.2328 6.39086L10.1803 6.36086L9.65906 6.06086L8.58281 5.43836C8.25281 5.24711 7.75031 5.24711 7.42031 5.43836L6.34406 6.06086L5.82281 6.36461L5.75531 6.40211C5.08406 6.85211 5.03906 6.93461 5.03906 7.65836V9.38711C5.03906 10.1109 5.08406 10.1934 5.77031 10.6546L7.42031 11.6071C7.58531 11.7046 7.79156 11.7496 8.00156 11.7496C8.20781 11.7496 8.41781 11.7046 8.58281 11.6071L10.2478 10.6434C10.9191 10.1934 10.9641 10.1109 10.9641 9.38711V7.65836C10.9641 6.93461 10.9191 6.85211 10.2328 6.39086Z" fill="white"/>
<path d="M5.82031 6.365L6.34156 6.06125L7.36906 5.46875L7.41781 5.43875C7.74781 5.2475 8.25031 5.2475 8.58031 5.43875L8.62906 5.46875L9.65656 6.06125L10.1778 6.36125V5.55875C10.1778 4.715 9.71281 4.25 8.86906 4.25H7.12531C6.28156 4.25 5.82031 4.715 5.82031 5.55875V6.365Z" fill="white"/>
<path d="M9.06832 8.50297L8.83582 8.78797C8.79832 8.82922 8.77207 8.91172 8.77582 8.96797L8.79832 9.33547C8.81332 9.56047 8.65207 9.67672 8.44207 9.59422L8.10082 9.45922C8.04832 9.44047 7.95832 9.44047 7.90582 9.45922L7.56457 9.59422C7.35457 9.67672 7.19332 9.56047 7.20832 9.33547L7.23082 8.96797C7.23457 8.91172 7.20832 8.82922 7.17082 8.78797L6.93832 8.50297C6.79207 8.33047 6.85582 8.13922 7.07332 8.08297L7.42957 7.99297C7.48582 7.97797 7.55332 7.92547 7.58332 7.87672L7.78207 7.56922C7.90582 7.37797 8.10082 7.37797 8.22457 7.56922L8.42332 7.87672C8.45332 7.92547 8.52082 7.97797 8.57707 7.99297L8.93332 8.08297C9.15082 8.13922 9.21457 8.33047 9.06832 8.50297Z" fill="white"/>
</svg>
