<svg width="40" height="41" viewBox="0 0 40 41" fill="none" xmlns="http://www.w3.org/2000/svg">
<rect y="0.5" width="40" height="40" rx="20" fill="#FFF0E7"/>
<path d="M19.537 24.129H13.3375C12.9851 24.129 13.0248 24.1655 13.0248 23.8163V18.869C13.0248 18.8135 13.0248 18.7563 13.0248 18.7008C13.0248 18.5691 13.0375 18.5437 13.1803 18.5437H25.673C26.1016 18.5437 26.0397 18.4849 26.0413 18.9214C26.0413 20.5387 26.0413 22.1577 26.0413 23.7766C26.0413 23.8512 26.0413 23.9337 26.0413 24.002C26.0413 24.1163 26.0254 24.1274 25.9064 24.1305C25.8318 24.1305 25.7508 24.1305 25.6794 24.1305L19.537 24.129Z" fill="#3F414A"/>
<path d="M19.5357 24.8126H25.7352C26.0701 24.8126 26.0399 24.7841 26.0399 25.1126C26.0399 26.1379 26.0399 27.1648 26.0399 28.1886C26.0383 28.4251 26.0018 28.6568 25.9272 28.8822C25.8526 29.1075 25.7463 29.3155 25.605 29.5059C25.4638 29.6964 25.2971 29.8599 25.1051 29.998C24.9114 30.1345 24.7019 30.2376 24.4766 30.3075C24.2956 30.3678 24.1115 30.3979 23.9226 30.4011H15.3598C15.1423 30.4074 14.9281 30.3868 14.717 30.3424C14.4789 30.2868 14.2567 30.1948 14.0488 30.0646C13.8424 29.9345 13.6615 29.7742 13.5091 29.5837C13.3552 29.3932 13.2361 29.1821 13.1536 28.952C13.0711 28.7219 13.0266 28.4854 13.0234 28.2409C13.0234 27.1696 13.0234 26.0967 13.0234 25.019V24.9618C13.0234 24.8237 13.0377 24.8047 13.1647 24.8047H19.5357V24.8126Z" fill="#DE5200"/>
<path d="M26.0426 14.3676C26.0378 14.1359 25.9981 13.9089 25.922 13.6899C25.8442 13.4709 25.7363 13.2709 25.5934 13.0868C25.4521 12.9027 25.2839 12.7471 25.0919 12.617C24.8998 12.4884 24.6919 12.3932 24.4681 12.3313C24.2665 12.2805 24.0618 12.2551 23.8539 12.2583C23.5634 12.2583 23.2729 12.2583 22.9825 12.2583C22.546 12.2583 22.6063 12.3107 22.6 11.8916C22.6 11.7869 22.6 11.6837 22.6 11.5774C22.5968 11.4583 22.5809 11.3409 22.5539 11.225C22.527 11.1092 22.4889 10.9965 22.4397 10.8885C22.3905 10.779 22.3317 10.6759 22.2635 10.579C22.1937 10.4822 22.1159 10.3917 22.0302 10.3108C21.9445 10.2283 21.8508 10.1553 21.7508 10.0918C21.6508 10.0267 21.5445 9.97273 21.4334 9.92988C21.3223 9.88702 21.2096 9.85369 21.0922 9.83306C20.9747 9.81084 20.8572 9.80132 20.7382 9.8029C19.9414 9.8029 19.1431 9.8029 18.3463 9.8029C18.2225 9.80449 18.1019 9.81719 17.9813 9.83941C17.8051 9.86957 17.6353 9.9267 17.475 10.0077C17.3147 10.0886 17.1702 10.1918 17.0401 10.3156C16.9099 10.4394 16.8004 10.5806 16.7131 10.7362C16.6242 10.8933 16.5607 11.0584 16.5211 11.2345C16.4782 11.4758 16.4623 11.7202 16.4734 11.9646C16.4734 12.2773 16.4973 12.2583 16.1893 12.2599H15.1767C14.791 12.2519 14.4323 12.3487 14.1022 12.5471C13.9371 12.6392 13.7863 12.7519 13.6514 12.8836C13.5165 13.017 13.4022 13.1646 13.3086 13.3296C13.2134 13.4931 13.1419 13.6661 13.0943 13.8502C13.0467 14.0327 13.0245 14.2185 13.0277 14.4089C13.0181 15.4517 13.0277 16.4945 13.0277 17.5404C13.0277 17.8674 12.9991 17.8436 13.3308 17.8436H25.6934C25.7775 17.8436 25.8632 17.8436 25.9473 17.8436C26.0077 17.8452 26.0378 17.8166 26.0378 17.7547C26.0378 17.7182 26.0378 17.6801 26.0378 17.642C26.0442 16.5468 26.0505 15.4549 26.0426 14.3676ZM21.8905 12.025C21.8937 12.0551 21.8842 12.0805 21.8619 12.1027C21.8413 12.1234 21.8159 12.1329 21.7858 12.1297C21.7016 12.1297 21.6175 12.1297 21.5318 12.1297H17.5623C17.4972 12.1297 17.4305 12.1297 17.3654 12.1297C17.1877 12.1297 17.1797 12.1154 17.1766 11.9313C17.1766 11.8091 17.1766 11.6869 17.1766 11.5647C17.1829 11.425 17.2162 11.2917 17.2734 11.1647C17.3305 11.0377 17.4083 10.925 17.5083 10.8266C17.6083 10.7298 17.7226 10.6536 17.8495 10.5981C17.9781 10.5441 18.113 10.514 18.2511 10.5092H20.8176C20.9572 10.514 21.0906 10.5441 21.2191 10.5997C21.3477 10.6552 21.462 10.7314 21.5604 10.8298C21.6604 10.9282 21.7381 11.0409 21.7953 11.1695C21.8524 11.2964 21.8842 11.4298 21.8905 11.5694C21.8953 11.7266 21.8905 11.8774 21.8905 12.025Z" fill="#DE5200"/>
</svg>
