<svg width="24" height="25" viewBox="0 0 24 25" fill="none" xmlns="http://www.w3.org/2000/svg">
<path d="M22.5061 18.5H11.2561M11.2561 18.5H2.37191C1.53072 18.5 0.987082 17.6105 1.37073 16.8619L3.6061 12.5H9.0061L11.2561 18.5Z" stroke="#3F414A" stroke-width="1.5" stroke-linecap="round" stroke-linejoin="round"/>
<path d="M4.5 12.5L1.5 12.5" stroke="#3F414A" stroke-width="1.5" stroke-linecap="round" stroke-linejoin="round"/>
<rect x="16.5" y="3.5" width="2.1" height="3" rx="1.05" stroke="#3F414A" stroke-width="1.5"/>
<path d="M17.25 3.5V3.5C15.9857 3.92143 15.2677 5.25395 15.6111 6.54163L18 15.5" stroke="#3F414A" stroke-width="1.5" stroke-linecap="round" stroke-linejoin="round"/>
<path d="M17.2116 10.1639L17.1255 9.41886L15.6354 9.59105L15.7215 10.3361L17.2116 10.1639ZM11.0791 15.8887C10.8795 15.5257 10.4235 15.3932 10.0605 15.5928C9.69756 15.7923 9.5651 16.2484 9.76466 16.6113L11.0791 15.8887ZM13.3235 18.2692L13.5054 17.5416L13.3235 18.2692ZM16.9708 14.6133L16.2257 14.6994L16.9708 14.6133ZM15.7215 10.3361L16.2257 14.6994L17.7158 14.5272L17.2116 10.1639L15.7215 10.3361ZM13.5054 17.5416L12.7493 17.3526L12.3855 18.8078L13.1416 18.9968L13.5054 17.5416ZM11.2478 16.1956L11.0791 15.8887L9.76466 16.6113L9.93341 16.9183L11.2478 16.1956ZM12.7493 17.3526C12.1096 17.1927 11.5655 16.7734 11.2478 16.1956L9.93341 16.9183C10.4522 17.8619 11.3408 18.5466 12.3855 18.8078L12.7493 17.3526ZM14.7622 17.4037C14.3732 17.5982 13.9274 17.6471 13.5054 17.5416L13.1416 18.9968C13.9109 19.1892 14.7237 19.1 15.433 18.7453L14.7622 17.4037ZM16.2257 14.6994C16.3551 15.8189 15.7702 16.8997 14.7622 17.4037L15.433 18.7453C17.0053 17.9592 17.9176 16.2734 17.7158 14.5272L16.2257 14.6994Z" fill="#3F414A"/>
<path d="M19.3828 22.3438C21.0397 22.3438 22.3828 21.0006 22.3828 19.3438C22.3828 17.6869 21.0397 16.3438 19.3828 16.3438C17.726 16.3438 16.3828 17.6869 16.3828 19.3438C16.3828 21.0006 17.726 22.3438 19.3828 22.3438Z" stroke="#3F414A" stroke-width="1.5"/>
<path d="M15.75 18.3084C16.1677 16.6931 17.6349 15.5 19.3808 15.5C21.1266 15.5 22.5938 16.6931 23.0116 18.3084" stroke="#3F414A" stroke-width="1.5" stroke-linecap="round"/>
<path d="M8.25 19.3438C8.25 21.0006 6.90685 22.3438 5.25 22.3438C3.59315 22.3438 2.25 21.0006 2.25 19.3438" stroke="#3F414A" stroke-width="1.5"/>
<rect x="18" y="17" width="3" height="1.5" fill="#3F414A"/>
<rect x="2.25" y="4.25" width="6" height="6" rx="2.25" stroke="#3F414A" stroke-width="1.5"/>
</svg>
