<svg width="20" height="20" viewBox="0 0 20 20" fill="none" xmlns="http://www.w3.org/2000/svg">
<path d="M13.5443 18.7507C14.3497 18.7507 15.0026 18.0977 15.0026 17.2923C15.0026 16.4869 14.3497 15.834 13.5443 15.834C12.7389 15.834 12.0859 16.4869 12.0859 17.2923C12.0859 18.0977 12.7389 18.7507 13.5443 18.7507Z" fill="#3F414A"/>
<path d="M6.8724 18.7507C7.67781 18.7507 8.33073 18.0977 8.33073 17.2923C8.33073 16.4869 7.67781 15.834 6.8724 15.834C6.06698 15.834 5.41406 16.4869 5.41406 17.2923C5.41406 18.0977 6.06698 18.7507 6.8724 18.7507Z" fill="#3F414A"/>
<path opacity="0.4" d="M4.03073 3.28268L3.86406 5.32435C3.83073 5.71602 4.13906 6.04102 4.53073 6.04102H17.2891C17.6391 6.04102 17.9307 5.77434 17.9557 5.42434C18.0641 3.94934 16.9391 2.74935 15.4641 2.74935H5.23906C5.15572 2.38268 4.98906 2.03268 4.73072 1.74101C4.32239 1.29935 3.73907 1.04102 3.13907 1.04102H1.66406C1.3224 1.04102 1.03906 1.32435 1.03906 1.66602C1.03906 2.00768 1.3224 2.29102 1.66406 2.29102H3.11407C3.3724 2.29102 3.61407 2.39935 3.78907 2.58269C3.96407 2.77435 4.04739 3.02435 4.03073 3.28268Z" fill="#3F414A"/>
<path d="M17.0943 7.29102H4.31098C3.96098 7.29102 3.67765 7.55768 3.64432 7.89935L3.34432 11.5244C3.22765 12.941 4.34432 14.166 5.76932 14.166H15.036C16.286 14.166 17.386 13.141 17.4777 11.891L17.7527 7.99935C17.786 7.61602 17.486 7.29102 17.0943 7.29102Z" fill="#3F414A"/>
</svg>
