<svg width="74" height="74" viewBox="0 0 74 74" fill="none" xmlns="http://www.w3.org/2000/svg">
<g filter="url(#filter0_d_5981_58841)">
<rect x="5" width="64" height="64" rx="32" fill="url(#paint0_linear_5981_58841)" shape-rendering="crispEdges"/>
<rect x="6.14286" y="1.14286" width="61.7143" height="61.7143" rx="30.8571" stroke="#FCFCFD" stroke-width="2.28571" shape-rendering="crispEdges"/>
<path d="M48.1431 25.9763C48.1431 25.7477 48.0517 25.5306 47.8917 25.3706L43.6403 21.1192C43.3088 20.7877 42.7603 20.7877 42.4288 21.1192C42.0974 21.4506 42.0974 21.9992 42.4288 22.3306L45.2289 25.1306H26.7146C26.246 25.1306 25.8574 25.5192 25.8574 25.9878C25.8574 26.4563 26.246 26.8449 26.7146 26.8449H45.2174L42.4288 29.6335C42.0974 29.9649 42.0974 30.5135 42.4288 30.8449C42.6003 31.0163 42.8175 31.0964 43.0346 31.0964C43.2517 31.0964 43.4688 31.0163 43.6403 30.8449L47.8803 26.6049C47.9603 26.5249 48.0288 26.4221 48.0746 26.3078C48.0746 26.2964 48.0746 26.2849 48.086 26.2735C48.1203 26.1706 48.1431 26.0792 48.1431 25.9763Z" fill="#DE5200"/>
<path opacity="0.4" d="M47.286 37.1661H28.7831L31.5717 34.3775C31.9031 34.046 31.9031 33.4975 31.5717 33.1661C31.2403 32.8346 30.6917 32.8346 30.3603 33.1661L26.1203 37.406C26.0403 37.486 25.9717 37.5889 25.926 37.7032C25.926 37.7146 25.926 37.7261 25.9146 37.7375C25.8803 37.8289 25.8574 37.9318 25.8574 38.0346C25.8574 38.2632 25.9488 38.4803 26.1088 38.6403L30.3603 42.8918C30.5317 43.0632 30.7488 43.1432 30.966 43.1432C31.1831 43.1432 31.4003 43.0632 31.5717 42.8918C31.9031 42.5603 31.9031 42.0117 31.5717 41.6803L28.7717 38.8803H47.286C47.7546 38.8803 48.1431 38.4918 48.1431 38.0232C48.1431 37.5546 47.7546 37.1661 47.286 37.1661Z" fill="#DE5200"/>
</g>
<defs>
<filter id="filter0_d_5981_58841" x="0.428573" y="0" width="73.1429" height="73.1429" filterUnits="userSpaceOnUse" color-interpolation-filters="sRGB">
<feFlood flood-opacity="0" result="BackgroundImageFix"/>
<feColorMatrix in="SourceAlpha" type="matrix" values="0 0 0 0 0 0 0 0 0 0 0 0 0 0 0 0 0 0 127 0" result="hardAlpha"/>
<feOffset dy="4.57143"/>
<feGaussianBlur stdDeviation="2.28571"/>
<feComposite in2="hardAlpha" operator="out"/>
<feColorMatrix type="matrix" values="0 0 0 0 0 0 0 0 0 0 0 0 0 0 0 0 0 0 0.08 0"/>
<feBlend mode="normal" in2="BackgroundImageFix" result="effect1_dropShadow_5981_58841"/>
<feBlend mode="normal" in="SourceGraphic" in2="effect1_dropShadow_5981_58841" result="shape"/>
</filter>
<linearGradient id="paint0_linear_5981_58841" x1="37" y1="0" x2="37" y2="64" gradientUnits="userSpaceOnUse">
<stop stop-color="#DE5200" stop-opacity="0.29"/>
<stop offset="1" stop-color="#EFECFE"/>
</linearGradient>
</defs>
</svg>
