<svg width="20" height="20" viewBox="0 0 20 20" fill="none" xmlns="http://www.w3.org/2000/svg">
<path opacity="0.4" d="M2.25261 9.03346C1.92761 9.03346 1.66927 8.77513 1.66927 8.45013L1.66927 7.67513C1.66928 4.25846 2.71094 3.2168 6.12761 3.2168L13.8776 3.2168C17.2943 3.2168 18.3359 4.25846 18.3359 7.67513L18.3359 8.0668C18.3359 8.3918 18.0776 8.65013 17.7526 8.65013C17.0026 8.65013 16.3943 9.25846 16.3943 10.0085C16.3943 10.7585 17.0026 11.3585 17.7526 11.3585C18.0776 11.3585 18.3359 11.6168 18.3359 11.9418L18.3359 12.3335C18.3359 15.7501 17.2943 16.7918 13.8776 16.7918L6.12761 16.7918C2.71094 16.7918 1.66927 15.7501 1.66927 12.3335C1.66927 12.0085 1.92761 11.7501 2.25261 11.7501C3.00261 11.7501 3.61094 11.1418 3.61094 10.3918C3.61094 9.64179 3.00261 9.03346 2.25261 9.03346Z" fill="#667085"/>
<path d="M7.50208 13.2331C7.96875 13.2331 8.34375 12.8581 8.34375 12.3997C8.34375 11.9414 7.96875 11.5664 7.51042 11.5664C7.05208 11.5664 6.67708 11.9414 6.67708 12.3997C6.67708 12.8581 7.03542 13.2331 7.50208 13.2331Z" fill="#667085"/>
<path d="M12.5021 9.06706C12.9687 9.06706 13.3437 8.69206 13.3437 8.23372C13.3437 7.77539 12.9688 7.40039 12.5104 7.40039C12.0521 7.40039 11.6771 7.77539 11.6771 8.23372C11.6771 8.69206 12.0354 9.06706 12.5021 9.06706Z" fill="#667085"/>
<path d="M12.8068 13.6922C12.9651 13.6922 13.1234 13.6339 13.2484 13.5089C13.4901 13.2672 13.4901 12.8672 13.2484 12.6255L7.64011 7.01719C7.39844 6.77552 6.99844 6.77552 6.75677 7.01719C6.51511 7.25885 6.51511 7.65885 6.75677 7.90052L12.3651 13.5089C12.4818 13.6339 12.6484 13.6922 12.8068 13.6922Z" fill="#667085"/>
</svg>
