<svg width="16" height="19" viewBox="0 0 16 19" fill="none" xmlns="http://www.w3.org/2000/svg">
<path d="M14.6615 11.0013V14.3346C14.6615 16.3346 13.3281 17.668 11.3281 17.668H4.66146C2.66146 17.668 1.32812 16.3346 1.32812 14.3346V11.0013C1.32812 9.18797 2.42146 7.9213 4.12146 7.70797C4.29479 7.6813 4.47479 7.66797 4.66146 7.66797H11.3281C11.5015 7.66797 11.6681 7.67463 11.8281 7.70129C13.5481 7.90129 14.6615 9.17464 14.6615 11.0013Z" stroke="#667085" stroke-linecap="round" stroke-linejoin="round"/>
<path d="M11.8317 7.6987C11.6717 7.67203 11.505 7.66537 11.3317 7.66537H4.665C4.47833 7.66537 4.29833 7.6787 4.125 7.70537C4.21833 7.5187 4.35167 7.34537 4.51167 7.18537L6.67833 5.01203C7.59167 4.10536 9.07167 4.10536 9.985 5.01203L11.1517 6.19204C11.5783 6.61204 11.805 7.14536 11.8317 7.6987Z" stroke="#667085" stroke-linecap="round" stroke-linejoin="round"/>
<path d="M14.6615 11.332H12.6615C11.9281 11.332 11.3281 11.932 11.3281 12.6654C11.3281 13.3987 11.9281 13.9987 12.6615 13.9987H14.6615" stroke="#667085" stroke-linecap="round" stroke-linejoin="round"/>
</svg>
